G04*
G04 #@! TF.GenerationSoftware,Altium Limited,Altium Designer,22.7.1 (60)*
G04*
G04 Layer_Color=255*
%FSLAX42Y42*%
%MOMM*%
G71*
G04*
G04 #@! TF.SameCoordinates,5E95509D-5024-4279-8DF4-8E0BA65E4A92*
G04*
G04*
G04 #@! TF.FilePolarity,Positive*
G04*
G01*
G75*
%ADD21C,3.30*%
%ADD22C,1.50*%
%ADD23R,1.50X1.50*%
%ADD24C,1.40*%
%ADD25C,1.20*%
%ADD26C,1.50*%
%ADD27R,1.50X1.50*%
%ADD28R,2.50X2.50*%
D21*
X3866Y7755D02*
D03*
Y6735D02*
D03*
X16764Y6600D02*
D03*
Y7620D02*
D03*
D22*
X4376Y6995D02*
D03*
X16254Y7360D02*
D03*
X10668Y9652D02*
D03*
X10414D02*
D03*
D23*
X4376Y7245D02*
D03*
X16254Y7110D02*
D03*
X10922Y9652D02*
D03*
D24*
X8255Y9398D02*
D03*
X7493D02*
D03*
X12573Y8890D02*
D03*
X11811D02*
D03*
X7751Y7245D02*
D03*
X6989D02*
D03*
X5967D02*
D03*
X5205D02*
D03*
X12218Y6987D02*
D03*
X11456D02*
D03*
X10768D02*
D03*
X10006D02*
D03*
D25*
X8509Y8636D02*
D03*
X9271D02*
D03*
X12827Y8128D02*
D03*
X13589D02*
D03*
X11176Y6096D02*
D03*
Y5334D02*
D03*
X6604Y6477D02*
D03*
Y5715D02*
D03*
D26*
X9271Y6731D02*
D03*
Y6985D02*
D03*
Y7239D02*
D03*
Y7493D02*
D03*
X8509Y6731D02*
D03*
Y6985D02*
D03*
Y7239D02*
D03*
X13589Y6477D02*
D03*
Y6731D02*
D03*
Y6985D02*
D03*
Y7239D02*
D03*
X12827Y6477D02*
D03*
Y6731D02*
D03*
Y6985D02*
D03*
D27*
X8509Y7493D02*
D03*
X12827Y7239D02*
D03*
D28*
X16980Y9838D02*
D03*
X17018Y4826D02*
D03*
X3556D02*
D03*
Y9906D02*
D03*
M02*
