G04*
G04 #@! TF.GenerationSoftware,Altium Limited,Altium Designer,22.7.1 (60)*
G04*
G04 Layer_Color=65535*
%FSLAX42Y42*%
%MOMM*%
G71*
G04*
G04 #@! TF.SameCoordinates,5E95509D-5024-4279-8DF4-8E0BA65E4A92*
G04*
G04*
G04 #@! TF.FilePolarity,Positive*
G04*
G01*
G75*
%ADD10C,0.02*%
%ADD11C,0.20*%
%ADD12C,0.03*%
%ADD13C,0.25*%
G36*
X15893Y8878D02*
X15898Y8878D01*
X15904Y8877D01*
X15911Y8875D01*
X15918Y8873D01*
X15924Y8871D01*
X15925Y8870D01*
X15927Y8869D01*
X15930Y8868D01*
X15934Y8866D01*
X15939Y8863D01*
X15943Y8859D01*
X15947Y8855D01*
X15951Y8851D01*
X15951Y8850D01*
X15952Y8848D01*
X15953Y8846D01*
X15956Y8843D01*
X15958Y8838D01*
X15959Y8834D01*
X15962Y8828D01*
X15963Y8822D01*
Y8822D01*
X15964Y8820D01*
X15964Y8817D01*
X15964Y8813D01*
Y8808D01*
X15965Y8801D01*
X15965Y8793D01*
Y8784D01*
Y8641D01*
X15926D01*
Y8782D01*
Y8782D01*
Y8783D01*
Y8786D01*
Y8790D01*
X15926Y8795D01*
X15925Y8801D01*
X15924Y8807D01*
X15923Y8813D01*
X15921Y8818D01*
Y8818D01*
X15921Y8820D01*
X15919Y8822D01*
X15918Y8825D01*
X15915Y8828D01*
X15913Y8831D01*
X15909Y8834D01*
X15905Y8837D01*
X15904Y8837D01*
X15903Y8838D01*
X15900Y8839D01*
X15897Y8841D01*
X15893Y8842D01*
X15889Y8843D01*
X15883Y8844D01*
X15877Y8844D01*
X15875D01*
X15873Y8844D01*
X15869Y8843D01*
X15863Y8842D01*
X15856Y8840D01*
X15849Y8837D01*
X15841Y8834D01*
X15834Y8828D01*
X15834Y8827D01*
X15832Y8825D01*
X15830Y8823D01*
X15829Y8821D01*
X15827Y8818D01*
X15826Y8815D01*
X15824Y8811D01*
X15822Y8806D01*
X15821Y8801D01*
X15819Y8796D01*
X15818Y8790D01*
X15817Y8783D01*
X15816Y8775D01*
Y8767D01*
Y8641D01*
X15777D01*
Y8873D01*
X15812D01*
Y8840D01*
X15813Y8841D01*
X15814Y8842D01*
X15815Y8844D01*
X15817Y8846D01*
X15820Y8849D01*
X15823Y8852D01*
X15827Y8856D01*
X15831Y8860D01*
X15836Y8863D01*
X15841Y8866D01*
X15847Y8870D01*
X15854Y8872D01*
X15861Y8875D01*
X15869Y8877D01*
X15877Y8878D01*
X15886Y8879D01*
X15890D01*
X15893Y8878D01*
D02*
G37*
G36*
X15055D02*
X15058D01*
X15062Y8878D01*
X15069Y8876D01*
X15078Y8874D01*
X15087Y8870D01*
X15095Y8866D01*
X15103Y8859D01*
X15104Y8858D01*
X15106Y8855D01*
X15109Y8851D01*
X15110Y8848D01*
X15112Y8845D01*
X15114Y8841D01*
X15115Y8836D01*
X15117Y8832D01*
X15118Y8826D01*
X15119Y8821D01*
X15120Y8814D01*
X15121Y8808D01*
Y8800D01*
Y8641D01*
X15082D01*
Y8787D01*
Y8787D01*
Y8788D01*
Y8791D01*
Y8795D01*
X15081Y8800D01*
X15081Y8805D01*
X15081Y8811D01*
X15080Y8816D01*
X15078Y8821D01*
Y8821D01*
X15077Y8823D01*
X15076Y8824D01*
X15075Y8827D01*
X15073Y8829D01*
X15071Y8832D01*
X15068Y8835D01*
X15064Y8838D01*
X15064Y8838D01*
X15063Y8839D01*
X15061Y8840D01*
X15057Y8841D01*
X15054Y8842D01*
X15050Y8843D01*
X15046Y8844D01*
X15041Y8844D01*
X15038D01*
X15037Y8844D01*
X15032Y8843D01*
X15026Y8842D01*
X15020Y8840D01*
X15013Y8837D01*
X15006Y8833D01*
X15000Y8828D01*
X14999Y8827D01*
X14997Y8824D01*
X14994Y8821D01*
X14992Y8815D01*
X14988Y8808D01*
X14986Y8799D01*
X14984Y8788D01*
X14983Y8776D01*
Y8641D01*
X14944D01*
Y8791D01*
Y8792D01*
Y8793D01*
Y8794D01*
Y8796D01*
X14944Y8801D01*
X14943Y8806D01*
X14942Y8813D01*
X14940Y8819D01*
X14938Y8825D01*
X14934Y8831D01*
X14934Y8831D01*
X14932Y8833D01*
X14930Y8835D01*
X14927Y8838D01*
X14923Y8840D01*
X14917Y8842D01*
X14911Y8844D01*
X14903Y8844D01*
X14900D01*
X14897Y8844D01*
X14893Y8843D01*
X14888Y8842D01*
X14883Y8841D01*
X14878Y8838D01*
X14872Y8835D01*
X14872Y8835D01*
X14870Y8834D01*
X14868Y8832D01*
X14864Y8829D01*
X14861Y8825D01*
X14858Y8821D01*
X14855Y8816D01*
X14852Y8810D01*
X14851Y8809D01*
X14851Y8806D01*
X14850Y8803D01*
X14849Y8798D01*
X14847Y8791D01*
X14846Y8782D01*
X14846Y8773D01*
X14845Y8761D01*
Y8641D01*
X14806D01*
Y8873D01*
X14841D01*
Y8840D01*
X14842Y8841D01*
X14843Y8843D01*
X14846Y8846D01*
X14849Y8850D01*
X14853Y8854D01*
X14858Y8859D01*
X14864Y8864D01*
X14870Y8868D01*
X14871Y8868D01*
X14874Y8870D01*
X14877Y8871D01*
X14882Y8873D01*
X14888Y8875D01*
X14895Y8877D01*
X14903Y8878D01*
X14912Y8879D01*
X14916D01*
X14921Y8878D01*
X14926Y8877D01*
X14933Y8876D01*
X14940Y8874D01*
X14947Y8871D01*
X14954Y8867D01*
X14955Y8867D01*
X14957Y8866D01*
X14959Y8863D01*
X14963Y8860D01*
X14967Y8855D01*
X14971Y8850D01*
X14975Y8844D01*
X14977Y8837D01*
X14978Y8838D01*
X14979Y8839D01*
X14980Y8841D01*
X14982Y8844D01*
X14985Y8847D01*
X14988Y8850D01*
X14992Y8854D01*
X14997Y8858D01*
X15002Y8862D01*
X15007Y8866D01*
X15013Y8869D01*
X15019Y8872D01*
X15026Y8875D01*
X15034Y8877D01*
X15041Y8878D01*
X15050Y8879D01*
X15053D01*
X15055Y8878D01*
D02*
G37*
G36*
X15636D02*
X15643Y8878D01*
X15651Y8877D01*
X15659Y8875D01*
X15667Y8873D01*
X15674Y8871D01*
X15675Y8871D01*
X15678Y8870D01*
X15681Y8868D01*
X15685Y8866D01*
X15690Y8864D01*
X15694Y8861D01*
X15698Y8857D01*
X15702Y8854D01*
X15703Y8853D01*
X15703Y8852D01*
X15705Y8849D01*
X15707Y8847D01*
X15709Y8842D01*
X15711Y8838D01*
X15713Y8833D01*
X15714Y8827D01*
Y8827D01*
X15715Y8825D01*
X15715Y8823D01*
X15715Y8819D01*
Y8814D01*
X15716Y8808D01*
X15716Y8800D01*
Y8791D01*
Y8738D01*
Y8738D01*
Y8736D01*
Y8733D01*
Y8729D01*
Y8725D01*
Y8720D01*
X15717Y8709D01*
Y8698D01*
X15717Y8686D01*
X15718Y8681D01*
Y8676D01*
X15718Y8672D01*
X15719Y8669D01*
Y8668D01*
X15719Y8667D01*
X15720Y8664D01*
X15721Y8660D01*
X15722Y8656D01*
X15724Y8651D01*
X15726Y8646D01*
X15728Y8641D01*
X15687D01*
X15687Y8642D01*
X15686Y8643D01*
X15685Y8646D01*
X15684Y8649D01*
X15683Y8654D01*
X15682Y8659D01*
X15681Y8664D01*
X15680Y8670D01*
X15679D01*
X15679Y8669D01*
X15676Y8667D01*
X15672Y8664D01*
X15666Y8660D01*
X15659Y8655D01*
X15653Y8651D01*
X15645Y8647D01*
X15637Y8643D01*
X15636Y8643D01*
X15634Y8642D01*
X15629Y8641D01*
X15624Y8640D01*
X15618Y8638D01*
X15610Y8637D01*
X15602Y8636D01*
X15594Y8636D01*
X15590D01*
X15587Y8636D01*
X15584D01*
X15580Y8637D01*
X15572Y8638D01*
X15563Y8641D01*
X15553Y8644D01*
X15543Y8648D01*
X15535Y8655D01*
X15534Y8655D01*
X15532Y8658D01*
X15529Y8662D01*
X15525Y8667D01*
X15521Y8674D01*
X15518Y8682D01*
X15516Y8692D01*
X15515Y8697D01*
X15515Y8702D01*
Y8703D01*
Y8705D01*
X15515Y8708D01*
X15516Y8712D01*
X15516Y8717D01*
X15518Y8723D01*
X15520Y8728D01*
X15522Y8733D01*
X15523Y8734D01*
X15523Y8735D01*
X15525Y8738D01*
X15528Y8742D01*
X15530Y8745D01*
X15534Y8749D01*
X15538Y8753D01*
X15542Y8756D01*
X15543Y8756D01*
X15545Y8757D01*
X15547Y8759D01*
X15551Y8761D01*
X15555Y8763D01*
X15560Y8765D01*
X15565Y8767D01*
X15571Y8769D01*
X15572D01*
X15573Y8769D01*
X15576Y8770D01*
X15580Y8771D01*
X15585Y8772D01*
X15591Y8773D01*
X15597Y8774D01*
X15606Y8775D01*
X15606D01*
X15608Y8775D01*
X15610D01*
X15614Y8776D01*
X15617Y8776D01*
X15622Y8777D01*
X15627Y8778D01*
X15633Y8779D01*
X15644Y8781D01*
X15656Y8783D01*
X15666Y8786D01*
X15672Y8787D01*
X15676Y8789D01*
Y8789D01*
Y8790D01*
X15677Y8793D01*
Y8796D01*
Y8798D01*
Y8799D01*
Y8799D01*
Y8800D01*
Y8803D01*
X15676Y8807D01*
X15675Y8812D01*
X15674Y8818D01*
X15672Y8823D01*
X15669Y8829D01*
X15665Y8833D01*
X15665Y8833D01*
X15662Y8835D01*
X15659Y8837D01*
X15654Y8840D01*
X15647Y8842D01*
X15640Y8844D01*
X15631Y8846D01*
X15620Y8846D01*
X15616D01*
X15611Y8846D01*
X15604Y8845D01*
X15598Y8844D01*
X15591Y8842D01*
X15585Y8840D01*
X15579Y8836D01*
X15579Y8836D01*
X15577Y8835D01*
X15574Y8832D01*
X15572Y8829D01*
X15569Y8824D01*
X15566Y8818D01*
X15563Y8810D01*
X15560Y8802D01*
X15522Y8807D01*
Y8808D01*
X15522Y8808D01*
Y8810D01*
X15523Y8811D01*
X15524Y8816D01*
X15526Y8822D01*
X15528Y8828D01*
X15531Y8834D01*
X15535Y8841D01*
X15539Y8847D01*
X15539Y8847D01*
X15541Y8849D01*
X15544Y8852D01*
X15548Y8855D01*
X15553Y8859D01*
X15559Y8863D01*
X15566Y8867D01*
X15573Y8870D01*
X15574D01*
X15574Y8871D01*
X15576Y8871D01*
X15578Y8872D01*
X15582Y8873D01*
X15589Y8874D01*
X15596Y8876D01*
X15605Y8877D01*
X15615Y8878D01*
X15626Y8879D01*
X15631D01*
X15636Y8878D01*
D02*
G37*
G36*
X15467Y8641D02*
X15428D01*
Y8961D01*
X15467D01*
Y8641D01*
D02*
G37*
G36*
X15288Y8878D02*
X15295Y8878D01*
X15303Y8877D01*
X15311Y8875D01*
X15318Y8873D01*
X15326Y8871D01*
X15327Y8871D01*
X15329Y8870D01*
X15332Y8868D01*
X15336Y8866D01*
X15341Y8864D01*
X15346Y8861D01*
X15350Y8857D01*
X15354Y8854D01*
X15354Y8853D01*
X15355Y8852D01*
X15356Y8849D01*
X15358Y8847D01*
X15361Y8842D01*
X15362Y8838D01*
X15364Y8833D01*
X15366Y8827D01*
Y8827D01*
X15366Y8825D01*
X15367Y8823D01*
X15367Y8819D01*
Y8814D01*
X15367Y8808D01*
X15368Y8800D01*
Y8791D01*
Y8738D01*
Y8738D01*
Y8736D01*
Y8733D01*
Y8729D01*
Y8725D01*
Y8720D01*
X15368Y8709D01*
Y8698D01*
X15369Y8686D01*
X15369Y8681D01*
Y8676D01*
X15370Y8672D01*
X15370Y8669D01*
Y8668D01*
X15371Y8667D01*
X15371Y8664D01*
X15373Y8660D01*
X15373Y8656D01*
X15375Y8651D01*
X15378Y8646D01*
X15380Y8641D01*
X15339D01*
X15338Y8642D01*
X15338Y8643D01*
X15337Y8646D01*
X15336Y8649D01*
X15334Y8654D01*
X15333Y8659D01*
X15332Y8664D01*
X15331Y8670D01*
X15331D01*
X15330Y8669D01*
X15328Y8667D01*
X15324Y8664D01*
X15318Y8660D01*
X15311Y8655D01*
X15304Y8651D01*
X15297Y8647D01*
X15289Y8643D01*
X15288Y8643D01*
X15285Y8642D01*
X15281Y8641D01*
X15276Y8640D01*
X15269Y8638D01*
X15262Y8637D01*
X15254Y8636D01*
X15245Y8636D01*
X15242D01*
X15239Y8636D01*
X15236D01*
X15232Y8637D01*
X15224Y8638D01*
X15214Y8641D01*
X15204Y8644D01*
X15195Y8648D01*
X15187Y8655D01*
X15186Y8655D01*
X15183Y8658D01*
X15180Y8662D01*
X15176Y8667D01*
X15173Y8674D01*
X15169Y8682D01*
X15167Y8692D01*
X15167Y8697D01*
X15166Y8702D01*
Y8703D01*
Y8705D01*
X15167Y8708D01*
X15167Y8712D01*
X15168Y8717D01*
X15169Y8723D01*
X15171Y8728D01*
X15174Y8733D01*
X15174Y8734D01*
X15175Y8735D01*
X15177Y8738D01*
X15179Y8742D01*
X15182Y8745D01*
X15186Y8749D01*
X15189Y8753D01*
X15194Y8756D01*
X15194Y8756D01*
X15196Y8757D01*
X15199Y8759D01*
X15202Y8761D01*
X15206Y8763D01*
X15212Y8765D01*
X15217Y8767D01*
X15223Y8769D01*
X15223D01*
X15225Y8769D01*
X15228Y8770D01*
X15231Y8771D01*
X15236Y8772D01*
X15242Y8773D01*
X15249Y8774D01*
X15257Y8775D01*
X15258D01*
X15260Y8775D01*
X15262D01*
X15265Y8776D01*
X15269Y8776D01*
X15274Y8777D01*
X15279Y8778D01*
X15284Y8779D01*
X15295Y8781D01*
X15307Y8783D01*
X15318Y8786D01*
X15323Y8787D01*
X15328Y8789D01*
Y8789D01*
Y8790D01*
X15328Y8793D01*
Y8796D01*
Y8798D01*
Y8799D01*
Y8799D01*
Y8800D01*
Y8803D01*
X15328Y8807D01*
X15327Y8812D01*
X15325Y8818D01*
X15323Y8823D01*
X15320Y8829D01*
X15317Y8833D01*
X15316Y8833D01*
X15314Y8835D01*
X15310Y8837D01*
X15305Y8840D01*
X15299Y8842D01*
X15292Y8844D01*
X15282Y8846D01*
X15272Y8846D01*
X15267D01*
X15262Y8846D01*
X15256Y8845D01*
X15249Y8844D01*
X15243Y8842D01*
X15236Y8840D01*
X15230Y8836D01*
X15230Y8836D01*
X15228Y8835D01*
X15226Y8832D01*
X15223Y8829D01*
X15220Y8824D01*
X15217Y8818D01*
X15214Y8810D01*
X15212Y8802D01*
X15173Y8807D01*
Y8808D01*
X15174Y8808D01*
Y8810D01*
X15174Y8811D01*
X15175Y8816D01*
X15177Y8822D01*
X15180Y8828D01*
X15182Y8834D01*
X15186Y8841D01*
X15190Y8847D01*
X15191Y8847D01*
X15193Y8849D01*
X15195Y8852D01*
X15199Y8855D01*
X15204Y8859D01*
X15210Y8863D01*
X15217Y8867D01*
X15225Y8870D01*
X15225D01*
X15226Y8871D01*
X15227Y8871D01*
X15229Y8872D01*
X15234Y8873D01*
X15240Y8874D01*
X15248Y8876D01*
X15257Y8877D01*
X15267Y8878D01*
X15278Y8879D01*
X15283D01*
X15288Y8878D01*
D02*
G37*
G36*
X14777Y8641D02*
X14729D01*
X14692Y8738D01*
X14558D01*
X14523Y8641D01*
X14478D01*
X14600Y8961D01*
X14646D01*
X14777Y8641D01*
D02*
G37*
G36*
X14688Y9475D02*
X14691D01*
X14700Y9474D01*
X14710Y9473D01*
X14720Y9470D01*
X14731Y9467D01*
X14741Y9464D01*
X14742D01*
X14743Y9463D01*
X14744Y9462D01*
X14746Y9461D01*
X14751Y9459D01*
X14757Y9455D01*
X14764Y9450D01*
X14771Y9444D01*
X14777Y9437D01*
X14783Y9430D01*
Y9429D01*
X14784Y9429D01*
X14785Y9427D01*
X14785Y9426D01*
X14788Y9421D01*
X14791Y9415D01*
X14794Y9408D01*
X14796Y9399D01*
X14798Y9390D01*
X14799Y9380D01*
X14759Y9376D01*
Y9377D01*
Y9378D01*
X14758Y9379D01*
X14758Y9381D01*
X14756Y9387D01*
X14754Y9393D01*
X14752Y9401D01*
X14747Y9408D01*
X14742Y9415D01*
X14736Y9422D01*
X14735Y9422D01*
X14733Y9424D01*
X14728Y9427D01*
X14722Y9430D01*
X14714Y9432D01*
X14705Y9435D01*
X14693Y9437D01*
X14680Y9437D01*
X14674D01*
X14671Y9437D01*
X14667Y9436D01*
X14659Y9436D01*
X14650Y9434D01*
X14641Y9431D01*
X14632Y9428D01*
X14628Y9425D01*
X14624Y9423D01*
X14623Y9423D01*
X14622Y9421D01*
X14619Y9418D01*
X14616Y9414D01*
X14613Y9409D01*
X14610Y9403D01*
X14608Y9397D01*
X14607Y9389D01*
Y9388D01*
Y9387D01*
X14608Y9383D01*
X14609Y9380D01*
X14610Y9375D01*
X14612Y9370D01*
X14615Y9366D01*
X14619Y9361D01*
X14620Y9361D01*
X14622Y9359D01*
X14624Y9358D01*
X14626Y9357D01*
X14629Y9355D01*
X14632Y9354D01*
X14636Y9352D01*
X14641Y9350D01*
X14646Y9349D01*
X14652Y9346D01*
X14658Y9344D01*
X14666Y9342D01*
X14674Y9340D01*
X14683Y9338D01*
X14684D01*
X14685Y9337D01*
X14688Y9337D01*
X14691Y9336D01*
X14696Y9335D01*
X14701Y9334D01*
X14706Y9332D01*
X14711Y9331D01*
X14723Y9328D01*
X14735Y9324D01*
X14741Y9323D01*
X14746Y9321D01*
X14750Y9319D01*
X14754Y9318D01*
X14754D01*
X14755Y9317D01*
X14757Y9316D01*
X14759Y9315D01*
X14764Y9312D01*
X14770Y9309D01*
X14777Y9304D01*
X14784Y9298D01*
X14790Y9292D01*
X14796Y9285D01*
X14796Y9284D01*
X14798Y9281D01*
X14800Y9277D01*
X14803Y9272D01*
X14805Y9265D01*
X14807Y9257D01*
X14809Y9249D01*
X14809Y9239D01*
Y9239D01*
Y9238D01*
Y9237D01*
Y9235D01*
X14808Y9230D01*
X14807Y9224D01*
X14805Y9216D01*
X14803Y9208D01*
X14799Y9200D01*
X14794Y9191D01*
Y9191D01*
X14794Y9190D01*
X14791Y9188D01*
X14788Y9183D01*
X14784Y9179D01*
X14778Y9173D01*
X14770Y9167D01*
X14762Y9162D01*
X14752Y9156D01*
X14752D01*
X14751Y9156D01*
X14749Y9156D01*
X14747Y9155D01*
X14745Y9154D01*
X14741Y9152D01*
X14734Y9150D01*
X14725Y9148D01*
X14715Y9146D01*
X14703Y9144D01*
X14691Y9144D01*
X14683D01*
X14679Y9144D01*
X14675D01*
X14671Y9145D01*
X14665Y9145D01*
X14654Y9147D01*
X14642Y9149D01*
X14629Y9152D01*
X14618Y9156D01*
X14617D01*
X14617Y9157D01*
X14615Y9158D01*
X14613Y9159D01*
X14608Y9162D01*
X14601Y9166D01*
X14594Y9171D01*
X14586Y9178D01*
X14579Y9186D01*
X14572Y9194D01*
Y9195D01*
X14571Y9196D01*
X14570Y9197D01*
X14569Y9199D01*
X14568Y9201D01*
X14567Y9204D01*
X14563Y9211D01*
X14560Y9220D01*
X14557Y9230D01*
X14555Y9241D01*
X14555Y9252D01*
X14594Y9256D01*
Y9256D01*
Y9255D01*
X14595Y9254D01*
Y9252D01*
X14596Y9248D01*
X14597Y9242D01*
X14599Y9236D01*
X14601Y9229D01*
X14604Y9222D01*
X14607Y9216D01*
X14608Y9216D01*
X14609Y9214D01*
X14611Y9211D01*
X14615Y9207D01*
X14620Y9203D01*
X14625Y9199D01*
X14632Y9195D01*
X14639Y9191D01*
X14640D01*
X14640Y9191D01*
X14642Y9190D01*
X14643Y9190D01*
X14648Y9188D01*
X14654Y9187D01*
X14661Y9185D01*
X14669Y9183D01*
X14679Y9182D01*
X14689Y9182D01*
X14693D01*
X14698Y9182D01*
X14703Y9183D01*
X14710Y9184D01*
X14717Y9185D01*
X14724Y9187D01*
X14731Y9189D01*
X14732Y9189D01*
X14735Y9190D01*
X14738Y9192D01*
X14742Y9194D01*
X14746Y9197D01*
X14751Y9200D01*
X14755Y9204D01*
X14759Y9209D01*
X14760Y9209D01*
X14760Y9211D01*
X14762Y9213D01*
X14764Y9217D01*
X14766Y9221D01*
X14767Y9225D01*
X14768Y9231D01*
X14768Y9236D01*
Y9237D01*
Y9239D01*
X14768Y9242D01*
X14767Y9245D01*
X14766Y9249D01*
X14765Y9254D01*
X14762Y9258D01*
X14759Y9262D01*
X14759Y9263D01*
X14757Y9264D01*
X14755Y9266D01*
X14752Y9269D01*
X14748Y9272D01*
X14743Y9275D01*
X14737Y9278D01*
X14730Y9281D01*
X14730Y9281D01*
X14728Y9282D01*
X14724Y9283D01*
X14722Y9284D01*
X14718Y9285D01*
X14715Y9286D01*
X14711Y9287D01*
X14706Y9288D01*
X14701Y9290D01*
X14695Y9291D01*
X14689Y9293D01*
X14681Y9295D01*
X14673Y9297D01*
X14673D01*
X14672Y9297D01*
X14669Y9298D01*
X14666Y9299D01*
X14663Y9299D01*
X14659Y9300D01*
X14649Y9303D01*
X14639Y9306D01*
X14629Y9310D01*
X14619Y9313D01*
X14615Y9315D01*
X14611Y9317D01*
X14611D01*
X14610Y9317D01*
X14608Y9319D01*
X14604Y9321D01*
X14599Y9325D01*
X14593Y9329D01*
X14588Y9334D01*
X14582Y9340D01*
X14578Y9347D01*
X14577Y9348D01*
X14576Y9350D01*
X14574Y9354D01*
X14572Y9358D01*
X14570Y9364D01*
X14568Y9371D01*
X14567Y9379D01*
X14567Y9387D01*
Y9387D01*
Y9387D01*
Y9389D01*
Y9391D01*
X14567Y9395D01*
X14568Y9401D01*
X14570Y9408D01*
X14572Y9416D01*
X14575Y9424D01*
X14580Y9432D01*
Y9432D01*
X14580Y9433D01*
X14583Y9436D01*
X14586Y9439D01*
X14590Y9444D01*
X14596Y9449D01*
X14603Y9455D01*
X14611Y9460D01*
X14620Y9464D01*
X14621D01*
X14622Y9465D01*
X14623Y9465D01*
X14625Y9466D01*
X14627Y9467D01*
X14630Y9468D01*
X14637Y9470D01*
X14646Y9472D01*
X14656Y9474D01*
X14667Y9475D01*
X14679Y9475D01*
X14685D01*
X14688Y9475D01*
D02*
G37*
G36*
X14990Y9340D02*
X15130Y9150D01*
X15074D01*
X14960Y9311D01*
X14908Y9261D01*
Y9150D01*
X14865D01*
Y9470D01*
X14908D01*
Y9311D01*
X15066Y9470D01*
X15124D01*
X14990Y9340D01*
D02*
G37*
G36*
X16338Y9150D02*
X16294D01*
X16126Y9401D01*
Y9150D01*
X16085D01*
Y9470D01*
X16129D01*
X16297Y9218D01*
Y9470D01*
X16338D01*
Y9150D01*
D02*
G37*
G36*
X16052D02*
X16003D01*
X15966Y9247D01*
X15832D01*
X15797Y9150D01*
X15752D01*
X15874Y9470D01*
X15921D01*
X16052Y9150D01*
D02*
G37*
G36*
X15617Y9469D02*
X15621D01*
X15631Y9469D01*
X15641Y9467D01*
X15652Y9466D01*
X15662Y9464D01*
X15668Y9462D01*
X15672Y9461D01*
X15672D01*
X15673Y9461D01*
X15675Y9459D01*
X15680Y9457D01*
X15685Y9454D01*
X15690Y9450D01*
X15696Y9444D01*
X15702Y9438D01*
X15707Y9430D01*
Y9430D01*
X15708Y9430D01*
X15710Y9427D01*
X15711Y9422D01*
X15714Y9416D01*
X15717Y9409D01*
X15719Y9401D01*
X15720Y9392D01*
X15721Y9382D01*
Y9382D01*
Y9381D01*
Y9379D01*
X15720Y9377D01*
Y9374D01*
X15720Y9370D01*
X15718Y9362D01*
X15715Y9353D01*
X15711Y9343D01*
X15706Y9334D01*
X15702Y9329D01*
X15699Y9324D01*
X15698Y9324D01*
X15698Y9324D01*
X15696Y9322D01*
X15694Y9321D01*
X15692Y9319D01*
X15689Y9317D01*
X15686Y9315D01*
X15682Y9312D01*
X15677Y9310D01*
X15672Y9307D01*
X15667Y9305D01*
X15661Y9302D01*
X15654Y9300D01*
X15647Y9298D01*
X15639Y9297D01*
X15630Y9295D01*
X15631Y9295D01*
X15633Y9294D01*
X15636Y9292D01*
X15640Y9290D01*
X15648Y9285D01*
X15652Y9282D01*
X15656Y9279D01*
X15657Y9278D01*
X15659Y9276D01*
X15663Y9272D01*
X15668Y9268D01*
X15673Y9261D01*
X15679Y9254D01*
X15685Y9246D01*
X15691Y9237D01*
X15746Y9150D01*
X15693D01*
X15651Y9216D01*
Y9217D01*
X15650Y9218D01*
X15649Y9219D01*
X15648Y9221D01*
X15645Y9226D01*
X15641Y9232D01*
X15636Y9239D01*
X15630Y9247D01*
X15625Y9254D01*
X15621Y9260D01*
X15620Y9261D01*
X15619Y9262D01*
X15617Y9265D01*
X15613Y9268D01*
X15606Y9275D01*
X15603Y9279D01*
X15599Y9281D01*
X15599Y9282D01*
X15598Y9282D01*
X15596Y9283D01*
X15593Y9285D01*
X15590Y9286D01*
X15587Y9287D01*
X15580Y9290D01*
X15579D01*
X15578Y9290D01*
X15576D01*
X15574Y9291D01*
X15571Y9291D01*
X15567D01*
X15562Y9292D01*
X15507D01*
Y9150D01*
X15465D01*
Y9470D01*
X15613D01*
X15617Y9469D01*
D02*
G37*
G36*
X15430Y9150D02*
X15382D01*
X15344Y9247D01*
X15210D01*
X15176Y9150D01*
X15131D01*
X15253Y9470D01*
X15299D01*
X15430Y9150D01*
D02*
G37*
G36*
X14535D02*
X14486D01*
X14449Y9247D01*
X14315D01*
X14280Y9150D01*
X14235D01*
X14357Y9470D01*
X14404D01*
X14535Y9150D01*
D02*
G37*
G36*
X14099Y9469D02*
X14103D01*
X14111Y9468D01*
X14120Y9467D01*
X14130Y9466D01*
X14140Y9463D01*
X14149Y9460D01*
X14149D01*
X14150Y9460D01*
X14152Y9458D01*
X14157Y9456D01*
X14161Y9453D01*
X14167Y9449D01*
X14173Y9443D01*
X14178Y9437D01*
X14183Y9430D01*
X14184Y9429D01*
X14185Y9426D01*
X14188Y9423D01*
X14190Y9417D01*
X14192Y9411D01*
X14194Y9404D01*
X14196Y9396D01*
X14196Y9388D01*
Y9387D01*
Y9385D01*
X14196Y9380D01*
X14195Y9375D01*
X14194Y9369D01*
X14191Y9363D01*
X14188Y9356D01*
X14185Y9349D01*
X14184Y9349D01*
X14183Y9347D01*
X14180Y9343D01*
X14176Y9339D01*
X14172Y9335D01*
X14166Y9330D01*
X14159Y9325D01*
X14151Y9320D01*
X14152D01*
X14153Y9320D01*
X14154Y9319D01*
X14156Y9318D01*
X14162Y9317D01*
X14168Y9313D01*
X14175Y9309D01*
X14183Y9304D01*
X14190Y9298D01*
X14196Y9291D01*
X14197Y9290D01*
X14199Y9287D01*
X14201Y9283D01*
X14204Y9277D01*
X14207Y9270D01*
X14210Y9262D01*
X14212Y9253D01*
X14212Y9243D01*
Y9242D01*
Y9242D01*
Y9239D01*
X14212Y9234D01*
X14211Y9229D01*
X14210Y9222D01*
X14208Y9215D01*
X14206Y9208D01*
X14202Y9200D01*
X14202Y9200D01*
X14200Y9197D01*
X14199Y9194D01*
X14196Y9189D01*
X14192Y9185D01*
X14188Y9180D01*
X14184Y9175D01*
X14179Y9170D01*
X14178Y9170D01*
X14176Y9169D01*
X14173Y9167D01*
X14169Y9165D01*
X14164Y9162D01*
X14158Y9159D01*
X14151Y9157D01*
X14144Y9155D01*
X14143D01*
X14140Y9154D01*
X14135Y9153D01*
X14129Y9152D01*
X14122Y9151D01*
X14113Y9150D01*
X14103Y9150D01*
X14092Y9150D01*
X13970D01*
Y9470D01*
X14096D01*
X14099Y9469D01*
D02*
G37*
G36*
X15367Y9894D02*
X15372Y9893D01*
X15378Y9891D01*
X15385Y9889D01*
X15392Y9886D01*
X15400Y9882D01*
X15385Y9845D01*
X15385Y9846D01*
X15383Y9847D01*
X15380Y9848D01*
X15377Y9850D01*
X15372Y9851D01*
X15367Y9852D01*
X15362Y9853D01*
X15357Y9854D01*
X15355D01*
X15353Y9853D01*
X15349Y9853D01*
X15346Y9852D01*
X15342Y9851D01*
X15338Y9849D01*
X15334Y9846D01*
X15334Y9845D01*
X15332Y9845D01*
X15331Y9843D01*
X15329Y9840D01*
X15326Y9837D01*
X15324Y9833D01*
X15322Y9829D01*
X15320Y9824D01*
X15319Y9823D01*
X15319Y9820D01*
X15318Y9816D01*
X15317Y9811D01*
X15315Y9804D01*
X15314Y9796D01*
X15314Y9788D01*
X15313Y9778D01*
Y9657D01*
X15274D01*
Y9889D01*
X15310D01*
Y9854D01*
X15310Y9855D01*
X15312Y9858D01*
X15314Y9862D01*
X15318Y9867D01*
X15322Y9872D01*
X15326Y9878D01*
X15330Y9882D01*
X15334Y9886D01*
X15335Y9887D01*
X15336Y9888D01*
X15339Y9889D01*
X15341Y9890D01*
X15345Y9892D01*
X15350Y9893D01*
X15354Y9894D01*
X15360Y9895D01*
X15363D01*
X15367Y9894D01*
D02*
G37*
G36*
X15603Y9845D02*
X15559D01*
Y9889D01*
X15603D01*
Y9845D01*
D02*
G37*
G36*
Y9657D02*
X15559D01*
Y9702D01*
X15603D01*
Y9657D01*
D02*
G37*
G36*
X15134Y9894D02*
X15141Y9894D01*
X15149Y9893D01*
X15156Y9891D01*
X15164Y9889D01*
X15172Y9887D01*
X15173Y9887D01*
X15175Y9886D01*
X15178Y9884D01*
X15182Y9882D01*
X15187Y9880D01*
X15192Y9877D01*
X15196Y9873D01*
X15199Y9870D01*
X15200Y9869D01*
X15201Y9868D01*
X15202Y9865D01*
X15204Y9863D01*
X15206Y9858D01*
X15208Y9854D01*
X15210Y9849D01*
X15211Y9843D01*
Y9843D01*
X15212Y9841D01*
X15212Y9839D01*
X15213Y9835D01*
Y9830D01*
X15213Y9824D01*
X15214Y9816D01*
Y9807D01*
Y9754D01*
Y9754D01*
Y9752D01*
Y9749D01*
Y9745D01*
Y9741D01*
Y9736D01*
X15214Y9725D01*
Y9714D01*
X15215Y9702D01*
X15215Y9697D01*
Y9692D01*
X15216Y9688D01*
X15216Y9685D01*
Y9684D01*
X15217Y9683D01*
X15217Y9680D01*
X15218Y9676D01*
X15219Y9672D01*
X15221Y9667D01*
X15223Y9662D01*
X15226Y9657D01*
X15185D01*
X15184Y9658D01*
X15184Y9659D01*
X15183Y9662D01*
X15181Y9665D01*
X15180Y9670D01*
X15179Y9675D01*
X15178Y9680D01*
X15177Y9686D01*
X15177D01*
X15176Y9685D01*
X15174Y9683D01*
X15169Y9680D01*
X15164Y9676D01*
X15157Y9671D01*
X15150Y9667D01*
X15142Y9663D01*
X15135Y9659D01*
X15134Y9659D01*
X15131Y9658D01*
X15127Y9657D01*
X15122Y9656D01*
X15115Y9654D01*
X15108Y9653D01*
X15099Y9652D01*
X15091Y9652D01*
X15087D01*
X15085Y9652D01*
X15081D01*
X15078Y9653D01*
X15069Y9654D01*
X15060Y9657D01*
X15050Y9660D01*
X15041Y9664D01*
X15032Y9671D01*
X15031Y9671D01*
X15029Y9674D01*
X15026Y9678D01*
X15022Y9683D01*
X15018Y9690D01*
X15015Y9698D01*
X15013Y9708D01*
X15012Y9713D01*
X15012Y9718D01*
Y9719D01*
Y9721D01*
X15012Y9724D01*
X15013Y9728D01*
X15014Y9733D01*
X15015Y9739D01*
X15017Y9744D01*
X15019Y9749D01*
X15020Y9750D01*
X15021Y9751D01*
X15023Y9754D01*
X15025Y9758D01*
X15028Y9761D01*
X15031Y9765D01*
X15035Y9769D01*
X15040Y9772D01*
X15040Y9772D01*
X15042Y9773D01*
X15044Y9775D01*
X15048Y9777D01*
X15052Y9779D01*
X15057Y9781D01*
X15062Y9783D01*
X15068Y9785D01*
X15069D01*
X15071Y9785D01*
X15074Y9786D01*
X15077Y9787D01*
X15082Y9788D01*
X15088Y9789D01*
X15095Y9790D01*
X15103Y9791D01*
X15104D01*
X15105Y9791D01*
X15108D01*
X15111Y9792D01*
X15115Y9792D01*
X15119Y9793D01*
X15124Y9794D01*
X15130Y9795D01*
X15141Y9797D01*
X15153Y9799D01*
X15164Y9802D01*
X15169Y9803D01*
X15174Y9805D01*
Y9805D01*
Y9806D01*
X15174Y9809D01*
Y9812D01*
Y9814D01*
Y9815D01*
Y9815D01*
Y9816D01*
Y9819D01*
X15174Y9823D01*
X15173Y9828D01*
X15171Y9834D01*
X15169Y9839D01*
X15166Y9845D01*
X15162Y9849D01*
X15162Y9849D01*
X15160Y9851D01*
X15156Y9853D01*
X15151Y9856D01*
X15145Y9858D01*
X15137Y9860D01*
X15128Y9862D01*
X15118Y9862D01*
X15113D01*
X15108Y9862D01*
X15102Y9861D01*
X15095Y9860D01*
X15088Y9858D01*
X15082Y9856D01*
X15076Y9852D01*
X15076Y9852D01*
X15074Y9851D01*
X15072Y9848D01*
X15069Y9845D01*
X15066Y9840D01*
X15063Y9834D01*
X15060Y9826D01*
X15057Y9818D01*
X15019Y9823D01*
Y9824D01*
X15019Y9824D01*
Y9826D01*
X15020Y9827D01*
X15021Y9832D01*
X15023Y9838D01*
X15025Y9844D01*
X15028Y9850D01*
X15032Y9857D01*
X15036Y9863D01*
X15037Y9863D01*
X15038Y9865D01*
X15041Y9868D01*
X15045Y9871D01*
X15050Y9875D01*
X15056Y9879D01*
X15063Y9883D01*
X15071Y9886D01*
X15071D01*
X15072Y9887D01*
X15073Y9887D01*
X15075Y9888D01*
X15080Y9889D01*
X15086Y9890D01*
X15093Y9892D01*
X15103Y9893D01*
X15112Y9894D01*
X15124Y9895D01*
X15129D01*
X15134Y9894D01*
D02*
G37*
G36*
X14870Y9977D02*
X14878Y9976D01*
X14887Y9976D01*
X14894Y9975D01*
X14901Y9974D01*
X14902D01*
X14906Y9973D01*
X14910Y9972D01*
X14915Y9971D01*
X14921Y9969D01*
X14928Y9966D01*
X14935Y9963D01*
X14941Y9959D01*
X14942Y9958D01*
X14943Y9957D01*
X14946Y9954D01*
X14950Y9951D01*
X14954Y9947D01*
X14958Y9941D01*
X14963Y9935D01*
X14967Y9928D01*
X14967Y9927D01*
X14968Y9925D01*
X14970Y9921D01*
X14972Y9915D01*
X14973Y9909D01*
X14975Y9901D01*
X14976Y9893D01*
X14976Y9884D01*
Y9884D01*
Y9882D01*
Y9881D01*
X14976Y9877D01*
X14975Y9874D01*
X14975Y9870D01*
X14974Y9865D01*
X14973Y9860D01*
X14970Y9850D01*
X14968Y9844D01*
X14965Y9838D01*
X14962Y9832D01*
X14959Y9826D01*
X14955Y9821D01*
X14950Y9815D01*
X14950Y9815D01*
X14949Y9814D01*
X14947Y9813D01*
X14945Y9811D01*
X14942Y9809D01*
X14938Y9807D01*
X14934Y9804D01*
X14929Y9801D01*
X14923Y9799D01*
X14916Y9796D01*
X14908Y9794D01*
X14900Y9792D01*
X14890Y9790D01*
X14880Y9789D01*
X14869Y9788D01*
X14856Y9787D01*
X14775D01*
Y9657D01*
X14732D01*
Y9977D01*
X14863D01*
X14870Y9977D01*
D02*
G37*
G36*
X16020Y5086D02*
X15977D01*
Y5236D01*
X15812D01*
Y5086D01*
X15769D01*
Y5406D01*
X15812D01*
Y5274D01*
X15977D01*
Y5406D01*
X16020D01*
Y5086D01*
D02*
G37*
G36*
X14538Y5274D02*
X14326D01*
Y5310D01*
X14538D01*
Y5274D01*
D02*
G37*
G36*
X15592Y5276D02*
X15732Y5086D01*
X15676D01*
X15562Y5247D01*
X15510Y5197D01*
Y5086D01*
X15467D01*
Y5406D01*
X15510D01*
Y5247D01*
X15668Y5406D01*
X15726D01*
X15592Y5276D01*
D02*
G37*
G36*
X14083Y5323D02*
X14086D01*
X14089Y5322D01*
X14098Y5321D01*
X14108Y5318D01*
X14118Y5315D01*
X14128Y5310D01*
X14138Y5304D01*
X14139D01*
X14139Y5303D01*
X14142Y5300D01*
X14146Y5296D01*
X14151Y5290D01*
X14156Y5282D01*
X14161Y5273D01*
X14166Y5262D01*
X14169Y5250D01*
X14131Y5244D01*
Y5244D01*
X14130Y5245D01*
X14130Y5248D01*
X14128Y5252D01*
X14126Y5257D01*
X14124Y5262D01*
X14120Y5268D01*
X14116Y5274D01*
X14111Y5279D01*
X14111Y5279D01*
X14109Y5280D01*
X14106Y5282D01*
X14102Y5285D01*
X14097Y5287D01*
X14091Y5289D01*
X14085Y5290D01*
X14078Y5291D01*
X14075D01*
X14073Y5290D01*
X14068Y5290D01*
X14061Y5288D01*
X14053Y5285D01*
X14045Y5282D01*
X14037Y5276D01*
X14033Y5273D01*
X14030Y5269D01*
Y5269D01*
X14029Y5268D01*
X14028Y5267D01*
X14027Y5265D01*
X14026Y5263D01*
X14024Y5260D01*
X14022Y5257D01*
X14021Y5253D01*
X14019Y5248D01*
X14017Y5243D01*
X14015Y5238D01*
X14014Y5232D01*
X14013Y5225D01*
X14012Y5218D01*
X14011Y5210D01*
Y5202D01*
Y5201D01*
Y5200D01*
Y5197D01*
X14012Y5194D01*
Y5190D01*
X14012Y5186D01*
X14014Y5176D01*
X14015Y5165D01*
X14019Y5153D01*
X14023Y5143D01*
X14026Y5138D01*
X14029Y5134D01*
X14030Y5133D01*
X14032Y5130D01*
X14036Y5127D01*
X14041Y5124D01*
X14048Y5119D01*
X14056Y5116D01*
X14065Y5114D01*
X14070Y5113D01*
X14076Y5113D01*
X14077D01*
X14079Y5113D01*
X14084Y5114D01*
X14089Y5115D01*
X14095Y5116D01*
X14102Y5119D01*
X14108Y5122D01*
X14114Y5127D01*
X14115Y5127D01*
X14116Y5130D01*
X14119Y5133D01*
X14122Y5138D01*
X14126Y5144D01*
X14129Y5151D01*
X14132Y5161D01*
X14134Y5171D01*
X14173Y5166D01*
Y5165D01*
X14172Y5164D01*
X14172Y5162D01*
X14171Y5159D01*
X14170Y5155D01*
X14170Y5152D01*
X14166Y5142D01*
X14162Y5133D01*
X14156Y5122D01*
X14149Y5112D01*
X14145Y5107D01*
X14140Y5103D01*
X14139Y5102D01*
X14139Y5102D01*
X14137Y5101D01*
X14135Y5099D01*
X14133Y5098D01*
X14130Y5096D01*
X14126Y5094D01*
X14122Y5092D01*
X14113Y5087D01*
X14102Y5084D01*
X14090Y5081D01*
X14083Y5081D01*
X14076Y5080D01*
X14071D01*
X14068Y5081D01*
X14064Y5081D01*
X14059Y5082D01*
X14054Y5083D01*
X14049Y5084D01*
X14036Y5088D01*
X14030Y5091D01*
X14024Y5093D01*
X14017Y5097D01*
X14011Y5101D01*
X14005Y5106D01*
X14000Y5111D01*
X13999Y5112D01*
X13998Y5113D01*
X13997Y5115D01*
X13995Y5117D01*
X13993Y5120D01*
X13990Y5124D01*
X13988Y5129D01*
X13985Y5134D01*
X13983Y5140D01*
X13980Y5147D01*
X13977Y5154D01*
X13976Y5162D01*
X13974Y5171D01*
X13972Y5180D01*
X13971Y5190D01*
X13971Y5201D01*
Y5201D01*
Y5203D01*
Y5204D01*
Y5207D01*
X13971Y5211D01*
Y5214D01*
X13972Y5218D01*
X13972Y5223D01*
X13974Y5233D01*
X13976Y5244D01*
X13979Y5255D01*
X13983Y5267D01*
Y5267D01*
X13983Y5268D01*
X13984Y5269D01*
X13985Y5271D01*
X13988Y5276D01*
X13992Y5282D01*
X13998Y5289D01*
X14004Y5296D01*
X14012Y5303D01*
X14021Y5309D01*
X14021D01*
X14022Y5309D01*
X14024Y5310D01*
X14026Y5311D01*
X14028Y5312D01*
X14031Y5313D01*
X14038Y5316D01*
X14046Y5318D01*
X14055Y5321D01*
X14065Y5323D01*
X14077Y5323D01*
X14080D01*
X14083Y5323D01*
D02*
G37*
G36*
X14538Y5177D02*
X14326D01*
Y5213D01*
X14538D01*
Y5177D01*
D02*
G37*
G36*
X16313Y5368D02*
X16132Y5146D01*
X16113Y5124D01*
X16318D01*
Y5086D01*
X16065D01*
Y5125D01*
X16229Y5329D01*
Y5330D01*
X16230Y5330D01*
X16232Y5333D01*
X16235Y5337D01*
X16240Y5342D01*
X16245Y5348D01*
X16250Y5355D01*
X16256Y5361D01*
X16262Y5368D01*
X16083D01*
Y5406D01*
X16313D01*
Y5368D01*
D02*
G37*
G36*
X14854Y5086D02*
X14815D01*
Y5336D01*
X14814Y5335D01*
X14812Y5334D01*
X14809Y5331D01*
X14804Y5328D01*
X14799Y5323D01*
X14793Y5319D01*
X14786Y5314D01*
X14777Y5309D01*
X14777D01*
X14776Y5308D01*
X14773Y5306D01*
X14769Y5304D01*
X14763Y5301D01*
X14757Y5298D01*
X14750Y5295D01*
X14743Y5291D01*
X14736Y5289D01*
Y5327D01*
X14736D01*
X14737Y5328D01*
X14739Y5328D01*
X14742Y5329D01*
X14744Y5331D01*
X14748Y5333D01*
X14755Y5337D01*
X14765Y5342D01*
X14774Y5349D01*
X14784Y5356D01*
X14793Y5364D01*
X14794Y5365D01*
X14794Y5365D01*
X14796Y5366D01*
X14798Y5368D01*
X14802Y5372D01*
X14807Y5378D01*
X14813Y5385D01*
X14819Y5392D01*
X14824Y5399D01*
X14829Y5407D01*
X14854D01*
Y5086D01*
D02*
G37*
G36*
X13933Y5368D02*
X13759D01*
Y5269D01*
X13909D01*
Y5231D01*
X13759D01*
Y5086D01*
X13716D01*
Y5406D01*
X13933D01*
Y5368D01*
D02*
G37*
G36*
X15318Y5407D02*
X15324Y5406D01*
X15331Y5404D01*
X15338Y5403D01*
X15346Y5400D01*
X15353Y5397D01*
X15354D01*
X15354Y5396D01*
X15357Y5395D01*
X15360Y5392D01*
X15365Y5389D01*
X15370Y5385D01*
X15376Y5379D01*
X15381Y5373D01*
X15386Y5366D01*
X15386Y5366D01*
X15388Y5363D01*
X15390Y5359D01*
X15393Y5353D01*
X15396Y5346D01*
X15400Y5338D01*
X15403Y5329D01*
X15406Y5319D01*
Y5318D01*
X15406Y5317D01*
X15407Y5316D01*
X15407Y5314D01*
X15407Y5311D01*
X15408Y5308D01*
X15409Y5304D01*
X15409Y5299D01*
X15410Y5294D01*
X15411Y5288D01*
X15411Y5282D01*
X15412Y5275D01*
X15413Y5268D01*
Y5260D01*
X15413Y5252D01*
Y5243D01*
Y5243D01*
Y5241D01*
Y5238D01*
Y5234D01*
X15413Y5229D01*
Y5223D01*
X15412Y5217D01*
X15412Y5211D01*
X15410Y5196D01*
X15408Y5181D01*
X15405Y5166D01*
X15403Y5159D01*
X15401Y5152D01*
Y5152D01*
X15401Y5151D01*
X15400Y5149D01*
X15399Y5147D01*
X15398Y5143D01*
X15396Y5140D01*
X15392Y5132D01*
X15388Y5124D01*
X15382Y5115D01*
X15375Y5106D01*
X15366Y5099D01*
X15366D01*
X15365Y5098D01*
X15364Y5097D01*
X15362Y5096D01*
X15360Y5094D01*
X15358Y5092D01*
X15351Y5089D01*
X15342Y5086D01*
X15333Y5083D01*
X15321Y5081D01*
X15308Y5080D01*
X15304D01*
X15301Y5080D01*
X15297Y5081D01*
X15292Y5082D01*
X15287Y5083D01*
X15282Y5084D01*
X15276Y5086D01*
X15270Y5088D01*
X15264Y5091D01*
X15258Y5094D01*
X15252Y5098D01*
X15246Y5102D01*
X15240Y5107D01*
X15235Y5113D01*
X15235Y5113D01*
X15234Y5115D01*
X15233Y5117D01*
X15230Y5121D01*
X15228Y5125D01*
X15226Y5130D01*
X15222Y5137D01*
X15220Y5144D01*
X15217Y5153D01*
X15214Y5162D01*
X15211Y5173D01*
X15209Y5185D01*
X15207Y5198D01*
X15205Y5212D01*
X15204Y5227D01*
X15204Y5243D01*
Y5244D01*
Y5246D01*
Y5249D01*
Y5253D01*
X15204Y5258D01*
Y5263D01*
X15205Y5269D01*
X15205Y5276D01*
X15207Y5291D01*
X15209Y5306D01*
X15212Y5321D01*
X15214Y5328D01*
X15215Y5335D01*
Y5335D01*
X15216Y5336D01*
X15217Y5338D01*
X15218Y5341D01*
X15219Y5344D01*
X15221Y5347D01*
X15224Y5355D01*
X15229Y5363D01*
X15235Y5372D01*
X15242Y5381D01*
X15250Y5388D01*
X15251D01*
X15251Y5389D01*
X15252Y5390D01*
X15254Y5391D01*
X15257Y5393D01*
X15259Y5394D01*
X15266Y5398D01*
X15275Y5401D01*
X15284Y5404D01*
X15296Y5406D01*
X15308Y5407D01*
X15313D01*
X15318Y5407D01*
D02*
G37*
G36*
X15069D02*
X15075Y5406D01*
X15082Y5404D01*
X15089Y5403D01*
X15097Y5400D01*
X15104Y5397D01*
X15105D01*
X15105Y5396D01*
X15108Y5395D01*
X15111Y5392D01*
X15116Y5389D01*
X15121Y5385D01*
X15127Y5379D01*
X15132Y5373D01*
X15137Y5366D01*
X15137Y5366D01*
X15139Y5363D01*
X15141Y5359D01*
X15144Y5353D01*
X15147Y5346D01*
X15151Y5338D01*
X15154Y5329D01*
X15157Y5319D01*
Y5318D01*
X15157Y5317D01*
X15158Y5316D01*
X15158Y5314D01*
X15159Y5311D01*
X15159Y5308D01*
X15160Y5304D01*
X15160Y5299D01*
X15161Y5294D01*
X15162Y5288D01*
X15162Y5282D01*
X15163Y5275D01*
X15164Y5268D01*
Y5260D01*
X15164Y5252D01*
Y5243D01*
Y5243D01*
Y5241D01*
Y5238D01*
Y5234D01*
X15164Y5229D01*
Y5223D01*
X15163Y5217D01*
X15163Y5211D01*
X15161Y5196D01*
X15159Y5181D01*
X15156Y5166D01*
X15154Y5159D01*
X15152Y5152D01*
Y5152D01*
X15152Y5151D01*
X15151Y5149D01*
X15150Y5147D01*
X15149Y5143D01*
X15147Y5140D01*
X15143Y5132D01*
X15139Y5124D01*
X15133Y5115D01*
X15126Y5106D01*
X15117Y5099D01*
X15117D01*
X15116Y5098D01*
X15115Y5097D01*
X15113Y5096D01*
X15111Y5094D01*
X15109Y5092D01*
X15102Y5089D01*
X15093Y5086D01*
X15084Y5083D01*
X15072Y5081D01*
X15059Y5080D01*
X15055D01*
X15052Y5080D01*
X15048Y5081D01*
X15043Y5082D01*
X15038Y5083D01*
X15033Y5084D01*
X15027Y5086D01*
X15021Y5088D01*
X15015Y5091D01*
X15009Y5094D01*
X15003Y5098D01*
X14997Y5102D01*
X14991Y5107D01*
X14986Y5113D01*
X14986Y5113D01*
X14985Y5115D01*
X14984Y5117D01*
X14981Y5121D01*
X14979Y5125D01*
X14977Y5130D01*
X14973Y5137D01*
X14971Y5144D01*
X14968Y5153D01*
X14965Y5162D01*
X14962Y5173D01*
X14960Y5185D01*
X14958Y5198D01*
X14956Y5212D01*
X14955Y5227D01*
X14955Y5243D01*
Y5244D01*
Y5246D01*
Y5249D01*
Y5253D01*
X14955Y5258D01*
Y5263D01*
X14956Y5269D01*
X14956Y5276D01*
X14958Y5291D01*
X14960Y5306D01*
X14963Y5321D01*
X14965Y5328D01*
X14966Y5335D01*
Y5335D01*
X14967Y5336D01*
X14968Y5338D01*
X14969Y5341D01*
X14970Y5344D01*
X14972Y5347D01*
X14975Y5355D01*
X14980Y5363D01*
X14986Y5372D01*
X14993Y5381D01*
X15001Y5388D01*
X15002D01*
X15002Y5389D01*
X15003Y5390D01*
X15005Y5391D01*
X15008Y5393D01*
X15010Y5394D01*
X15017Y5398D01*
X15026Y5401D01*
X15035Y5404D01*
X15047Y5406D01*
X15059Y5407D01*
X15064D01*
X15069Y5407D01*
D02*
G37*
G36*
X15907Y5869D02*
X15867D01*
Y5914D01*
X15907D01*
Y5869D01*
D02*
G37*
G36*
X15433Y5919D02*
X15437D01*
X15446Y5918D01*
X15455Y5917D01*
X15465Y5914D01*
X15477Y5911D01*
X15487Y5908D01*
X15488D01*
X15489Y5907D01*
X15490Y5907D01*
X15492Y5906D01*
X15497Y5903D01*
X15503Y5900D01*
X15510Y5895D01*
X15518Y5890D01*
X15525Y5884D01*
X15531Y5876D01*
X15532Y5875D01*
X15534Y5873D01*
X15537Y5868D01*
X15540Y5862D01*
X15544Y5855D01*
X15548Y5846D01*
X15552Y5836D01*
X15556Y5824D01*
X15517Y5814D01*
Y5814D01*
X15517Y5815D01*
X15516Y5816D01*
X15516Y5818D01*
X15515Y5822D01*
X15513Y5828D01*
X15510Y5834D01*
X15507Y5840D01*
X15503Y5847D01*
X15499Y5852D01*
X15499Y5853D01*
X15497Y5855D01*
X15495Y5857D01*
X15491Y5860D01*
X15487Y5864D01*
X15482Y5868D01*
X15476Y5871D01*
X15469Y5874D01*
X15468Y5875D01*
X15465Y5876D01*
X15461Y5877D01*
X15456Y5879D01*
X15449Y5880D01*
X15442Y5882D01*
X15434Y5883D01*
X15425Y5883D01*
X15420D01*
X15417Y5883D01*
X15415D01*
X15408Y5882D01*
X15400Y5881D01*
X15391Y5880D01*
X15383Y5877D01*
X15374Y5874D01*
X15373Y5874D01*
X15371Y5873D01*
X15367Y5870D01*
X15362Y5868D01*
X15357Y5864D01*
X15351Y5861D01*
X15345Y5856D01*
X15340Y5851D01*
X15340Y5850D01*
X15338Y5849D01*
X15335Y5845D01*
X15333Y5842D01*
X15329Y5837D01*
X15326Y5831D01*
X15323Y5825D01*
X15320Y5819D01*
Y5818D01*
X15319Y5818D01*
X15319Y5816D01*
X15318Y5814D01*
X15317Y5811D01*
X15316Y5808D01*
X15315Y5804D01*
X15314Y5800D01*
X15311Y5790D01*
X15310Y5779D01*
X15308Y5768D01*
X15308Y5755D01*
Y5754D01*
Y5753D01*
Y5750D01*
X15308Y5748D01*
Y5744D01*
X15309Y5739D01*
X15309Y5735D01*
X15310Y5730D01*
X15311Y5718D01*
X15314Y5706D01*
X15317Y5694D01*
X15322Y5682D01*
Y5682D01*
X15323Y5681D01*
X15323Y5680D01*
X15325Y5678D01*
X15328Y5673D01*
X15333Y5666D01*
X15339Y5659D01*
X15347Y5652D01*
X15355Y5646D01*
X15365Y5640D01*
X15366D01*
X15366Y5639D01*
X15368Y5638D01*
X15370Y5638D01*
X15372Y5637D01*
X15376Y5636D01*
X15383Y5633D01*
X15392Y5631D01*
X15403Y5628D01*
X15414Y5626D01*
X15425Y5626D01*
X15430D01*
X15433Y5626D01*
X15435D01*
X15442Y5627D01*
X15451Y5628D01*
X15459Y5630D01*
X15469Y5633D01*
X15479Y5636D01*
X15479D01*
X15480Y5637D01*
X15481Y5637D01*
X15483Y5638D01*
X15488Y5640D01*
X15494Y5643D01*
X15500Y5646D01*
X15507Y5650D01*
X15514Y5654D01*
X15519Y5659D01*
Y5719D01*
X15425D01*
Y5757D01*
X15561D01*
Y5638D01*
X15560Y5638D01*
X15559Y5637D01*
X15558Y5636D01*
X15555Y5634D01*
X15552Y5632D01*
X15549Y5630D01*
X15545Y5627D01*
X15541Y5624D01*
X15531Y5618D01*
X15520Y5612D01*
X15509Y5606D01*
X15496Y5600D01*
X15496D01*
X15495Y5600D01*
X15493Y5600D01*
X15490Y5599D01*
X15487Y5598D01*
X15484Y5596D01*
X15479Y5595D01*
X15475Y5594D01*
X15465Y5592D01*
X15453Y5590D01*
X15441Y5588D01*
X15428Y5588D01*
X15423D01*
X15420Y5588D01*
X15416D01*
X15411Y5589D01*
X15405Y5590D01*
X15399Y5590D01*
X15386Y5593D01*
X15372Y5596D01*
X15357Y5601D01*
X15349Y5604D01*
X15342Y5608D01*
X15341Y5608D01*
X15340Y5609D01*
X15338Y5610D01*
X15335Y5612D01*
X15332Y5614D01*
X15329Y5616D01*
X15320Y5623D01*
X15311Y5631D01*
X15301Y5641D01*
X15292Y5653D01*
X15284Y5666D01*
Y5667D01*
X15283Y5668D01*
X15282Y5670D01*
X15280Y5673D01*
X15279Y5676D01*
X15278Y5681D01*
X15276Y5686D01*
X15274Y5691D01*
X15272Y5697D01*
X15270Y5704D01*
X15269Y5711D01*
X15267Y5719D01*
X15265Y5735D01*
X15264Y5752D01*
Y5752D01*
Y5754D01*
Y5756D01*
X15265Y5760D01*
Y5764D01*
X15265Y5769D01*
X15266Y5774D01*
X15266Y5780D01*
X15268Y5787D01*
X15269Y5793D01*
X15272Y5808D01*
X15277Y5824D01*
X15284Y5839D01*
X15284Y5839D01*
X15285Y5841D01*
X15285Y5843D01*
X15287Y5845D01*
X15289Y5849D01*
X15291Y5853D01*
X15298Y5862D01*
X15306Y5872D01*
X15316Y5881D01*
X15327Y5891D01*
X15333Y5895D01*
X15340Y5899D01*
X15340Y5900D01*
X15341Y5900D01*
X15343Y5901D01*
X15346Y5903D01*
X15350Y5904D01*
X15354Y5906D01*
X15359Y5908D01*
X15364Y5910D01*
X15370Y5911D01*
X15377Y5913D01*
X15384Y5915D01*
X15391Y5916D01*
X15407Y5918D01*
X15415Y5919D01*
X15430D01*
X15433Y5919D01*
D02*
G37*
G36*
X16083Y5831D02*
X16088Y5830D01*
X16094Y5829D01*
X16100Y5828D01*
X16107Y5826D01*
X16114Y5823D01*
X16115Y5823D01*
X16117Y5822D01*
X16120Y5820D01*
X16124Y5818D01*
X16128Y5815D01*
X16132Y5812D01*
X16137Y5808D01*
X16140Y5803D01*
X16141Y5803D01*
X16142Y5801D01*
X16143Y5799D01*
X16145Y5795D01*
X16147Y5791D01*
X16149Y5786D01*
X16151Y5781D01*
X16153Y5775D01*
Y5774D01*
X16153Y5772D01*
X16154Y5769D01*
X16154Y5766D01*
Y5760D01*
X16155Y5754D01*
X16155Y5746D01*
Y5736D01*
Y5594D01*
X16116D01*
Y5734D01*
Y5735D01*
Y5735D01*
Y5738D01*
Y5743D01*
X16115Y5748D01*
X16115Y5754D01*
X16114Y5760D01*
X16112Y5765D01*
X16111Y5770D01*
Y5771D01*
X16110Y5772D01*
X16109Y5775D01*
X16107Y5777D01*
X16105Y5780D01*
X16102Y5783D01*
X16099Y5787D01*
X16094Y5789D01*
X16094Y5790D01*
X16093Y5791D01*
X16090Y5792D01*
X16087Y5793D01*
X16083Y5794D01*
X16078Y5796D01*
X16073Y5796D01*
X16067Y5797D01*
X16065D01*
X16063Y5796D01*
X16058Y5796D01*
X16052Y5795D01*
X16046Y5793D01*
X16038Y5790D01*
X16031Y5786D01*
X16024Y5781D01*
X16023Y5780D01*
X16021Y5777D01*
X16020Y5775D01*
X16019Y5773D01*
X16017Y5770D01*
X16015Y5767D01*
X16013Y5763D01*
X16012Y5759D01*
X16010Y5754D01*
X16009Y5748D01*
X16008Y5742D01*
X16007Y5736D01*
X16006Y5728D01*
Y5720D01*
Y5594D01*
X15967D01*
Y5826D01*
X16002D01*
Y5793D01*
X16002Y5793D01*
X16003Y5794D01*
X16005Y5796D01*
X16006Y5799D01*
X16009Y5801D01*
X16012Y5805D01*
X16016Y5808D01*
X16021Y5812D01*
X16025Y5815D01*
X16031Y5819D01*
X16037Y5822D01*
X16044Y5825D01*
X16051Y5827D01*
X16058Y5829D01*
X16067Y5831D01*
X16075Y5831D01*
X16079D01*
X16083Y5831D01*
D02*
G37*
G36*
X16547Y5782D02*
X16335D01*
Y5818D01*
X16547D01*
Y5782D01*
D02*
G37*
G36*
X15007Y5831D02*
X15014Y5830D01*
X15022Y5829D01*
X15030Y5827D01*
X15038Y5825D01*
X15046Y5823D01*
X15046D01*
X15047Y5822D01*
X15049Y5821D01*
X15053Y5819D01*
X15057Y5817D01*
X15062Y5814D01*
X15067Y5810D01*
X15072Y5806D01*
X15076Y5801D01*
X15077Y5801D01*
X15078Y5799D01*
X15080Y5796D01*
X15082Y5792D01*
X15084Y5787D01*
X15086Y5781D01*
X15088Y5774D01*
X15090Y5766D01*
X15052Y5761D01*
Y5762D01*
X15051Y5763D01*
X15050Y5767D01*
X15049Y5771D01*
X15047Y5775D01*
X15044Y5780D01*
X15041Y5784D01*
X15036Y5788D01*
X15036Y5789D01*
X15034Y5790D01*
X15031Y5792D01*
X15027Y5793D01*
X15022Y5795D01*
X15016Y5797D01*
X15009Y5798D01*
X15001Y5799D01*
X14996D01*
X14992Y5798D01*
X14986Y5798D01*
X14980Y5796D01*
X14973Y5795D01*
X14967Y5793D01*
X14962Y5789D01*
X14962Y5789D01*
X14960Y5788D01*
X14958Y5786D01*
X14956Y5783D01*
X14954Y5781D01*
X14952Y5777D01*
X14951Y5773D01*
X14950Y5768D01*
Y5768D01*
Y5767D01*
X14951Y5766D01*
Y5764D01*
X14952Y5759D01*
X14955Y5755D01*
X14955Y5754D01*
X14956Y5754D01*
X14957Y5752D01*
X14959Y5751D01*
X14961Y5750D01*
X14963Y5748D01*
X14967Y5746D01*
X14970Y5744D01*
X14971D01*
X14972Y5744D01*
X14974Y5743D01*
X14977Y5742D01*
X14981Y5741D01*
X14987Y5739D01*
X14991Y5738D01*
X14995Y5737D01*
X15000Y5736D01*
X15005Y5734D01*
X15005D01*
X15007Y5734D01*
X15009Y5733D01*
X15012Y5732D01*
X15015Y5731D01*
X15019Y5731D01*
X15028Y5728D01*
X15038Y5725D01*
X15048Y5722D01*
X15056Y5719D01*
X15060Y5717D01*
X15063Y5716D01*
X15064Y5715D01*
X15066Y5714D01*
X15069Y5713D01*
X15073Y5711D01*
X15077Y5708D01*
X15081Y5704D01*
X15086Y5700D01*
X15089Y5695D01*
X15090Y5695D01*
X15091Y5693D01*
X15092Y5690D01*
X15094Y5686D01*
X15096Y5681D01*
X15098Y5675D01*
X15098Y5669D01*
X15099Y5662D01*
Y5661D01*
Y5658D01*
X15098Y5655D01*
X15098Y5650D01*
X15096Y5644D01*
X15094Y5638D01*
X15091Y5631D01*
X15087Y5625D01*
X15087Y5624D01*
X15085Y5622D01*
X15083Y5619D01*
X15079Y5615D01*
X15074Y5611D01*
X15068Y5606D01*
X15062Y5602D01*
X15054Y5598D01*
X15054D01*
X15053Y5597D01*
X15050Y5596D01*
X15046Y5595D01*
X15040Y5593D01*
X15032Y5591D01*
X15024Y5590D01*
X15015Y5589D01*
X15005Y5588D01*
X15001D01*
X14998Y5589D01*
X14994D01*
X14989Y5589D01*
X14985Y5590D01*
X14980Y5591D01*
X14968Y5593D01*
X14957Y5596D01*
X14946Y5601D01*
X14941Y5604D01*
X14936Y5607D01*
X14936Y5607D01*
X14935Y5608D01*
X14932Y5611D01*
X14928Y5615D01*
X14924Y5621D01*
X14918Y5629D01*
X14913Y5638D01*
X14909Y5650D01*
X14906Y5663D01*
X14945Y5669D01*
Y5669D01*
Y5668D01*
X14946Y5665D01*
X14947Y5661D01*
X14949Y5656D01*
X14951Y5650D01*
X14954Y5644D01*
X14958Y5638D01*
X14963Y5633D01*
X14964Y5632D01*
X14966Y5631D01*
X14969Y5629D01*
X14974Y5627D01*
X14980Y5625D01*
X14987Y5623D01*
X14995Y5621D01*
X15005Y5621D01*
X15010D01*
X15014Y5621D01*
X15020Y5622D01*
X15027Y5624D01*
X15034Y5625D01*
X15040Y5628D01*
X15045Y5632D01*
X15046Y5632D01*
X15048Y5633D01*
X15049Y5636D01*
X15052Y5639D01*
X15055Y5643D01*
X15057Y5647D01*
X15058Y5652D01*
X15059Y5657D01*
Y5658D01*
Y5660D01*
X15058Y5662D01*
X15057Y5665D01*
X15056Y5669D01*
X15054Y5672D01*
X15051Y5675D01*
X15047Y5678D01*
X15046Y5679D01*
X15045Y5679D01*
X15042Y5681D01*
X15039Y5682D01*
X15033Y5684D01*
X15030Y5685D01*
X15026Y5686D01*
X15022Y5687D01*
X15018Y5689D01*
X15012Y5690D01*
X15006Y5692D01*
X15006D01*
X15005Y5692D01*
X15002Y5693D01*
X14999Y5694D01*
X14996Y5694D01*
X14992Y5696D01*
X14983Y5698D01*
X14973Y5701D01*
X14963Y5704D01*
X14954Y5707D01*
X14949Y5709D01*
X14946Y5711D01*
X14945Y5711D01*
X14943Y5712D01*
X14941Y5714D01*
X14937Y5716D01*
X14933Y5719D01*
X14929Y5723D01*
X14924Y5727D01*
X14921Y5732D01*
X14920Y5733D01*
X14919Y5735D01*
X14918Y5738D01*
X14917Y5742D01*
X14915Y5746D01*
X14914Y5752D01*
X14913Y5757D01*
X14912Y5764D01*
Y5765D01*
Y5767D01*
X14913Y5769D01*
X14913Y5774D01*
X14914Y5778D01*
X14915Y5783D01*
X14917Y5787D01*
X14919Y5793D01*
X14920Y5793D01*
X14921Y5795D01*
X14922Y5797D01*
X14924Y5800D01*
X14927Y5804D01*
X14930Y5808D01*
X14934Y5812D01*
X14939Y5815D01*
X14939Y5815D01*
X14941Y5816D01*
X14943Y5817D01*
X14945Y5818D01*
X14949Y5820D01*
X14953Y5822D01*
X14958Y5824D01*
X14964Y5826D01*
X14965Y5826D01*
X14967Y5827D01*
X14970Y5828D01*
X14974Y5829D01*
X14979Y5830D01*
X14985Y5830D01*
X14991Y5831D01*
X15002D01*
X15007Y5831D01*
D02*
G37*
G36*
X14783D02*
X14790Y5830D01*
X14798Y5829D01*
X14806Y5827D01*
X14814Y5825D01*
X14822Y5823D01*
X14822D01*
X14823Y5822D01*
X14825Y5821D01*
X14829Y5819D01*
X14833Y5817D01*
X14838Y5814D01*
X14843Y5810D01*
X14848Y5806D01*
X14852Y5801D01*
X14853Y5801D01*
X14854Y5799D01*
X14856Y5796D01*
X14858Y5792D01*
X14860Y5787D01*
X14862Y5781D01*
X14864Y5774D01*
X14866Y5766D01*
X14828Y5761D01*
Y5762D01*
X14827Y5763D01*
X14826Y5767D01*
X14825Y5771D01*
X14823Y5775D01*
X14820Y5780D01*
X14817Y5784D01*
X14812Y5788D01*
X14812Y5789D01*
X14810Y5790D01*
X14807Y5792D01*
X14803Y5793D01*
X14798Y5795D01*
X14792Y5797D01*
X14785Y5798D01*
X14777Y5799D01*
X14772D01*
X14768Y5798D01*
X14762Y5798D01*
X14756Y5796D01*
X14749Y5795D01*
X14743Y5793D01*
X14738Y5789D01*
X14738Y5789D01*
X14736Y5788D01*
X14734Y5786D01*
X14732Y5783D01*
X14730Y5781D01*
X14728Y5777D01*
X14727Y5773D01*
X14726Y5768D01*
Y5768D01*
Y5767D01*
X14727Y5766D01*
Y5764D01*
X14728Y5759D01*
X14731Y5755D01*
X14731Y5754D01*
X14732Y5754D01*
X14733Y5752D01*
X14735Y5751D01*
X14737Y5750D01*
X14739Y5748D01*
X14743Y5746D01*
X14746Y5744D01*
X14747D01*
X14748Y5744D01*
X14750Y5743D01*
X14753Y5742D01*
X14757Y5741D01*
X14763Y5739D01*
X14767Y5738D01*
X14771Y5737D01*
X14776Y5736D01*
X14781Y5734D01*
X14781D01*
X14783Y5734D01*
X14785Y5733D01*
X14788Y5732D01*
X14791Y5731D01*
X14795Y5731D01*
X14804Y5728D01*
X14814Y5725D01*
X14824Y5722D01*
X14832Y5719D01*
X14836Y5717D01*
X14839Y5716D01*
X14840Y5715D01*
X14842Y5714D01*
X14845Y5713D01*
X14849Y5711D01*
X14853Y5708D01*
X14857Y5704D01*
X14862Y5700D01*
X14865Y5695D01*
X14866Y5695D01*
X14867Y5693D01*
X14868Y5690D01*
X14870Y5686D01*
X14872Y5681D01*
X14874Y5675D01*
X14874Y5669D01*
X14875Y5662D01*
Y5661D01*
Y5658D01*
X14874Y5655D01*
X14874Y5650D01*
X14872Y5644D01*
X14870Y5638D01*
X14867Y5631D01*
X14863Y5625D01*
X14863Y5624D01*
X14861Y5622D01*
X14859Y5619D01*
X14855Y5615D01*
X14850Y5611D01*
X14844Y5606D01*
X14838Y5602D01*
X14830Y5598D01*
X14830D01*
X14829Y5597D01*
X14826Y5596D01*
X14822Y5595D01*
X14816Y5593D01*
X14808Y5591D01*
X14800Y5590D01*
X14791Y5589D01*
X14781Y5588D01*
X14777D01*
X14774Y5589D01*
X14770D01*
X14765Y5589D01*
X14761Y5590D01*
X14756Y5591D01*
X14744Y5593D01*
X14733Y5596D01*
X14722Y5601D01*
X14717Y5604D01*
X14712Y5607D01*
X14712Y5607D01*
X14711Y5608D01*
X14708Y5611D01*
X14704Y5615D01*
X14700Y5621D01*
X14694Y5629D01*
X14689Y5638D01*
X14685Y5650D01*
X14682Y5663D01*
X14721Y5669D01*
Y5669D01*
Y5668D01*
X14722Y5665D01*
X14723Y5661D01*
X14725Y5656D01*
X14727Y5650D01*
X14730Y5644D01*
X14734Y5638D01*
X14739Y5633D01*
X14740Y5632D01*
X14742Y5631D01*
X14745Y5629D01*
X14750Y5627D01*
X14756Y5625D01*
X14763Y5623D01*
X14771Y5621D01*
X14781Y5621D01*
X14786D01*
X14790Y5621D01*
X14796Y5622D01*
X14803Y5624D01*
X14810Y5625D01*
X14816Y5628D01*
X14821Y5632D01*
X14822Y5632D01*
X14824Y5633D01*
X14825Y5636D01*
X14828Y5639D01*
X14831Y5643D01*
X14833Y5647D01*
X14834Y5652D01*
X14835Y5657D01*
Y5658D01*
Y5660D01*
X14834Y5662D01*
X14833Y5665D01*
X14832Y5669D01*
X14830Y5672D01*
X14827Y5675D01*
X14823Y5678D01*
X14822Y5679D01*
X14821Y5679D01*
X14819Y5681D01*
X14815Y5682D01*
X14809Y5684D01*
X14806Y5685D01*
X14802Y5686D01*
X14798Y5687D01*
X14794Y5689D01*
X14788Y5690D01*
X14782Y5692D01*
X14782D01*
X14781Y5692D01*
X14778Y5693D01*
X14775Y5694D01*
X14772Y5694D01*
X14768Y5696D01*
X14759Y5698D01*
X14749Y5701D01*
X14739Y5704D01*
X14730Y5707D01*
X14725Y5709D01*
X14722Y5711D01*
X14721Y5711D01*
X14719Y5712D01*
X14717Y5714D01*
X14713Y5716D01*
X14709Y5719D01*
X14705Y5723D01*
X14700Y5727D01*
X14697Y5732D01*
X14696Y5733D01*
X14695Y5735D01*
X14694Y5738D01*
X14693Y5742D01*
X14691Y5746D01*
X14690Y5752D01*
X14689Y5757D01*
X14688Y5764D01*
Y5765D01*
Y5767D01*
X14689Y5769D01*
X14689Y5774D01*
X14690Y5778D01*
X14691Y5783D01*
X14693Y5787D01*
X14695Y5793D01*
X14696Y5793D01*
X14697Y5795D01*
X14698Y5797D01*
X14700Y5800D01*
X14703Y5804D01*
X14707Y5808D01*
X14710Y5812D01*
X14715Y5815D01*
X14715Y5815D01*
X14717Y5816D01*
X14719Y5817D01*
X14721Y5818D01*
X14725Y5820D01*
X14729Y5822D01*
X14734Y5824D01*
X14740Y5826D01*
X14741Y5826D01*
X14743Y5827D01*
X14746Y5828D01*
X14750Y5829D01*
X14755Y5830D01*
X14761Y5830D01*
X14767Y5831D01*
X14778D01*
X14783Y5831D01*
D02*
G37*
G36*
X16547Y5685D02*
X16335D01*
Y5721D01*
X16547D01*
Y5685D01*
D02*
G37*
G36*
X13919Y5594D02*
X13879D01*
X13842Y5732D01*
X13833Y5772D01*
X13786Y5594D01*
X13744D01*
X13674Y5826D01*
X13715D01*
X13752Y5692D01*
X13765Y5642D01*
Y5642D01*
X13766Y5643D01*
X13766Y5645D01*
X13767Y5647D01*
X13767Y5649D01*
X13768Y5652D01*
X13768Y5655D01*
X13769Y5659D01*
X13771Y5663D01*
X13772Y5669D01*
X13774Y5675D01*
X13775Y5681D01*
X13777Y5689D01*
X13814Y5826D01*
X13855D01*
X13889Y5691D01*
X13901Y5646D01*
X13914Y5691D01*
X13954Y5826D01*
X13992D01*
X13919Y5594D01*
D02*
G37*
G36*
X16863D02*
X16824D01*
Y5844D01*
X16823Y5843D01*
X16821Y5842D01*
X16818Y5839D01*
X16814Y5836D01*
X16808Y5831D01*
X16802Y5827D01*
X16795Y5822D01*
X16786Y5817D01*
X16786D01*
X16785Y5816D01*
X16783Y5814D01*
X16778Y5812D01*
X16772Y5809D01*
X16766Y5806D01*
X16759Y5803D01*
X16752Y5799D01*
X16745Y5797D01*
Y5835D01*
X16746D01*
X16746Y5836D01*
X16748Y5836D01*
X16751Y5837D01*
X16753Y5839D01*
X16757Y5841D01*
X16765Y5845D01*
X16774Y5850D01*
X16783Y5857D01*
X16793Y5864D01*
X16802Y5872D01*
X16803Y5873D01*
X16803Y5873D01*
X16805Y5874D01*
X16807Y5876D01*
X16811Y5880D01*
X16816Y5886D01*
X16822Y5893D01*
X16828Y5900D01*
X16833Y5907D01*
X16838Y5915D01*
X16863D01*
Y5594D01*
D02*
G37*
G36*
X15907D02*
X15867D01*
Y5826D01*
X15907D01*
Y5594D01*
D02*
G37*
G36*
X15726Y5831D02*
X15733Y5830D01*
X15741Y5829D01*
X15749Y5828D01*
X15757Y5826D01*
X15764Y5824D01*
X15765Y5823D01*
X15768Y5822D01*
X15771Y5821D01*
X15775Y5819D01*
X15780Y5816D01*
X15784Y5813D01*
X15789Y5810D01*
X15792Y5806D01*
X15793Y5806D01*
X15794Y5804D01*
X15795Y5802D01*
X15797Y5799D01*
X15799Y5795D01*
X15801Y5791D01*
X15803Y5786D01*
X15804Y5780D01*
Y5779D01*
X15805Y5778D01*
X15805Y5775D01*
X15806Y5771D01*
Y5766D01*
X15806Y5760D01*
X15807Y5752D01*
Y5743D01*
Y5691D01*
Y5690D01*
Y5688D01*
Y5686D01*
Y5682D01*
Y5678D01*
Y5673D01*
X15807Y5662D01*
Y5650D01*
X15807Y5638D01*
X15808Y5633D01*
Y5629D01*
X15808Y5625D01*
X15809Y5621D01*
Y5621D01*
X15809Y5619D01*
X15810Y5616D01*
X15811Y5613D01*
X15812Y5608D01*
X15814Y5604D01*
X15816Y5599D01*
X15819Y5594D01*
X15777D01*
X15777Y5594D01*
X15776Y5596D01*
X15776Y5598D01*
X15774Y5602D01*
X15773Y5606D01*
X15772Y5611D01*
X15771Y5617D01*
X15770Y5623D01*
X15770D01*
X15769Y5622D01*
X15766Y5619D01*
X15762Y5616D01*
X15757Y5612D01*
X15750Y5608D01*
X15743Y5603D01*
X15735Y5599D01*
X15727Y5596D01*
X15726Y5595D01*
X15724Y5595D01*
X15720Y5594D01*
X15714Y5592D01*
X15708Y5591D01*
X15701Y5590D01*
X15692Y5589D01*
X15684Y5588D01*
X15680D01*
X15677Y5589D01*
X15674D01*
X15670Y5589D01*
X15662Y5591D01*
X15653Y5593D01*
X15643Y5596D01*
X15633Y5601D01*
X15625Y5607D01*
X15624Y5608D01*
X15622Y5610D01*
X15619Y5614D01*
X15615Y5620D01*
X15611Y5627D01*
X15608Y5635D01*
X15606Y5644D01*
X15605Y5649D01*
X15605Y5655D01*
Y5656D01*
Y5657D01*
X15605Y5661D01*
X15606Y5665D01*
X15607Y5670D01*
X15608Y5675D01*
X15610Y5681D01*
X15612Y5686D01*
X15613Y5686D01*
X15614Y5688D01*
X15615Y5691D01*
X15618Y5694D01*
X15621Y5698D01*
X15624Y5701D01*
X15628Y5705D01*
X15633Y5708D01*
X15633Y5709D01*
X15635Y5710D01*
X15637Y5712D01*
X15641Y5713D01*
X15645Y5715D01*
X15650Y5718D01*
X15655Y5719D01*
X15661Y5721D01*
X15662D01*
X15664Y5722D01*
X15666Y5723D01*
X15670Y5723D01*
X15675Y5724D01*
X15681Y5725D01*
X15688Y5726D01*
X15696Y5727D01*
X15696D01*
X15698Y5728D01*
X15701D01*
X15704Y5728D01*
X15708Y5729D01*
X15712Y5730D01*
X15717Y5730D01*
X15723Y5731D01*
X15734Y5733D01*
X15746Y5736D01*
X15757Y5738D01*
X15762Y5740D01*
X15766Y5741D01*
Y5742D01*
Y5743D01*
X15767Y5745D01*
Y5749D01*
Y5750D01*
Y5751D01*
Y5752D01*
Y5752D01*
Y5755D01*
X15766Y5760D01*
X15765Y5765D01*
X15764Y5770D01*
X15762Y5776D01*
X15759Y5781D01*
X15755Y5785D01*
X15755Y5786D01*
X15752Y5787D01*
X15749Y5789D01*
X15744Y5792D01*
X15738Y5794D01*
X15730Y5797D01*
X15721Y5798D01*
X15710Y5799D01*
X15706D01*
X15701Y5798D01*
X15695Y5797D01*
X15688Y5796D01*
X15681Y5794D01*
X15675Y5792D01*
X15669Y5789D01*
X15669Y5788D01*
X15667Y5787D01*
X15664Y5785D01*
X15662Y5781D01*
X15659Y5776D01*
X15656Y5770D01*
X15653Y5763D01*
X15650Y5755D01*
X15612Y5760D01*
Y5760D01*
X15612Y5761D01*
Y5762D01*
X15613Y5764D01*
X15614Y5768D01*
X15616Y5774D01*
X15618Y5780D01*
X15621Y5787D01*
X15625Y5793D01*
X15629Y5799D01*
X15629Y5799D01*
X15631Y5801D01*
X15634Y5804D01*
X15638Y5808D01*
X15643Y5812D01*
X15649Y5815D01*
X15656Y5819D01*
X15664Y5823D01*
X15664D01*
X15664Y5823D01*
X15666Y5824D01*
X15668Y5824D01*
X15672Y5825D01*
X15679Y5827D01*
X15686Y5828D01*
X15695Y5830D01*
X15705Y5831D01*
X15716Y5831D01*
X15721D01*
X15726Y5831D01*
D02*
G37*
G36*
X14557D02*
X14564Y5830D01*
X14572Y5829D01*
X14580Y5828D01*
X14588Y5826D01*
X14595Y5824D01*
X14596Y5823D01*
X14598Y5822D01*
X14601Y5821D01*
X14606Y5819D01*
X14610Y5816D01*
X14615Y5813D01*
X14619Y5810D01*
X14623Y5806D01*
X14623Y5806D01*
X14624Y5804D01*
X14626Y5802D01*
X14627Y5799D01*
X14630Y5795D01*
X14632Y5791D01*
X14633Y5786D01*
X14635Y5780D01*
Y5779D01*
X14635Y5778D01*
X14636Y5775D01*
X14636Y5771D01*
Y5766D01*
X14637Y5760D01*
X14637Y5752D01*
Y5743D01*
Y5691D01*
Y5690D01*
Y5688D01*
Y5686D01*
Y5682D01*
Y5678D01*
Y5673D01*
X14638Y5662D01*
Y5650D01*
X14638Y5638D01*
X14638Y5633D01*
Y5629D01*
X14639Y5625D01*
X14639Y5621D01*
Y5621D01*
X14640Y5619D01*
X14640Y5616D01*
X14642Y5613D01*
X14643Y5608D01*
X14644Y5604D01*
X14647Y5599D01*
X14649Y5594D01*
X14608D01*
X14607Y5594D01*
X14607Y5596D01*
X14606Y5598D01*
X14605Y5602D01*
X14603Y5606D01*
X14602Y5611D01*
X14601Y5617D01*
X14601Y5623D01*
X14600D01*
X14600Y5622D01*
X14597Y5619D01*
X14593Y5616D01*
X14587Y5612D01*
X14580Y5608D01*
X14573Y5603D01*
X14566Y5599D01*
X14558Y5596D01*
X14557Y5595D01*
X14554Y5595D01*
X14550Y5594D01*
X14545Y5592D01*
X14539Y5591D01*
X14531Y5590D01*
X14523Y5589D01*
X14514Y5588D01*
X14511D01*
X14508Y5589D01*
X14505D01*
X14501Y5589D01*
X14493Y5591D01*
X14483Y5593D01*
X14473Y5596D01*
X14464Y5601D01*
X14456Y5607D01*
X14455Y5608D01*
X14452Y5610D01*
X14449Y5614D01*
X14445Y5620D01*
X14442Y5627D01*
X14439Y5635D01*
X14436Y5644D01*
X14436Y5649D01*
X14435Y5655D01*
Y5656D01*
Y5657D01*
X14436Y5661D01*
X14436Y5665D01*
X14437Y5670D01*
X14439Y5675D01*
X14440Y5681D01*
X14443Y5686D01*
X14443Y5686D01*
X14444Y5688D01*
X14446Y5691D01*
X14448Y5694D01*
X14451Y5698D01*
X14455Y5701D01*
X14458Y5705D01*
X14463Y5708D01*
X14464Y5709D01*
X14465Y5710D01*
X14468Y5712D01*
X14471Y5713D01*
X14476Y5715D01*
X14481Y5718D01*
X14486Y5719D01*
X14492Y5721D01*
X14492D01*
X14494Y5722D01*
X14497Y5723D01*
X14501Y5723D01*
X14505Y5724D01*
X14511Y5725D01*
X14518Y5726D01*
X14526Y5727D01*
X14527D01*
X14529Y5728D01*
X14531D01*
X14534Y5728D01*
X14538Y5729D01*
X14543Y5730D01*
X14548Y5730D01*
X14553Y5731D01*
X14564Y5733D01*
X14576Y5736D01*
X14587Y5738D01*
X14592Y5740D01*
X14597Y5741D01*
Y5742D01*
Y5743D01*
X14597Y5745D01*
Y5749D01*
Y5750D01*
Y5751D01*
Y5752D01*
Y5752D01*
Y5755D01*
X14597Y5760D01*
X14596Y5765D01*
X14595Y5770D01*
X14592Y5776D01*
X14589Y5781D01*
X14586Y5785D01*
X14585Y5786D01*
X14583Y5787D01*
X14579Y5789D01*
X14575Y5792D01*
X14568Y5794D01*
X14561Y5797D01*
X14551Y5798D01*
X14541Y5799D01*
X14536D01*
X14532Y5798D01*
X14525Y5797D01*
X14519Y5796D01*
X14512Y5794D01*
X14505Y5792D01*
X14500Y5789D01*
X14499Y5788D01*
X14497Y5787D01*
X14495Y5785D01*
X14492Y5781D01*
X14489Y5776D01*
X14486Y5770D01*
X14483Y5763D01*
X14481Y5755D01*
X14442Y5760D01*
Y5760D01*
X14443Y5761D01*
Y5762D01*
X14443Y5764D01*
X14445Y5768D01*
X14446Y5774D01*
X14449Y5780D01*
X14452Y5787D01*
X14455Y5793D01*
X14459Y5799D01*
X14460Y5799D01*
X14462Y5801D01*
X14464Y5804D01*
X14468Y5808D01*
X14473Y5812D01*
X14479Y5815D01*
X14486Y5819D01*
X14494Y5823D01*
X14495D01*
X14495Y5823D01*
X14496Y5824D01*
X14498Y5824D01*
X14503Y5825D01*
X14509Y5827D01*
X14517Y5828D01*
X14526Y5830D01*
X14536Y5831D01*
X14547Y5831D01*
X14552D01*
X14557Y5831D01*
D02*
G37*
G36*
X14294Y5913D02*
X14302Y5913D01*
X14310Y5912D01*
X14318Y5911D01*
X14325Y5911D01*
X14326D01*
X14329Y5910D01*
X14333Y5909D01*
X14339Y5907D01*
X14345Y5905D01*
X14351Y5902D01*
X14358Y5899D01*
X14364Y5895D01*
X14365Y5895D01*
X14367Y5893D01*
X14370Y5891D01*
X14373Y5887D01*
X14377Y5883D01*
X14382Y5878D01*
X14386Y5872D01*
X14390Y5865D01*
X14390Y5864D01*
X14391Y5862D01*
X14393Y5857D01*
X14395Y5852D01*
X14396Y5845D01*
X14398Y5838D01*
X14399Y5830D01*
X14400Y5821D01*
Y5820D01*
Y5819D01*
Y5817D01*
X14399Y5814D01*
X14399Y5811D01*
X14398Y5806D01*
X14397Y5802D01*
X14396Y5797D01*
X14393Y5786D01*
X14391Y5781D01*
X14389Y5775D01*
X14385Y5768D01*
X14382Y5763D01*
X14378Y5757D01*
X14373Y5752D01*
X14373Y5751D01*
X14372Y5750D01*
X14371Y5749D01*
X14368Y5748D01*
X14365Y5745D01*
X14362Y5743D01*
X14357Y5740D01*
X14352Y5738D01*
X14346Y5735D01*
X14339Y5732D01*
X14332Y5730D01*
X14323Y5728D01*
X14314Y5726D01*
X14303Y5725D01*
X14292Y5724D01*
X14280Y5724D01*
X14198D01*
Y5594D01*
X14155D01*
Y5914D01*
X14287D01*
X14294Y5913D01*
D02*
G37*
G36*
X13251Y5632D02*
X13408D01*
Y5594D01*
X13208D01*
Y5914D01*
X13251D01*
Y5632D01*
D02*
G37*
G36*
X13556Y5831D02*
X13560Y5830D01*
X13564Y5829D01*
X13569Y5828D01*
X13575Y5827D01*
X13588Y5823D01*
X13594Y5821D01*
X13601Y5818D01*
X13607Y5814D01*
X13614Y5810D01*
X13620Y5805D01*
X13626Y5799D01*
X13626Y5799D01*
X13627Y5798D01*
X13629Y5796D01*
X13631Y5794D01*
X13633Y5791D01*
X13636Y5787D01*
X13638Y5782D01*
X13641Y5777D01*
X13644Y5771D01*
X13647Y5764D01*
X13649Y5757D01*
X13652Y5750D01*
X13654Y5741D01*
X13655Y5732D01*
X13656Y5723D01*
X13656Y5713D01*
Y5712D01*
Y5711D01*
Y5709D01*
Y5706D01*
X13656Y5702D01*
X13656Y5697D01*
Y5693D01*
X13655Y5687D01*
X13653Y5676D01*
X13650Y5664D01*
X13647Y5653D01*
X13643Y5642D01*
Y5642D01*
X13642Y5641D01*
X13641Y5640D01*
X13640Y5638D01*
X13637Y5633D01*
X13633Y5628D01*
X13627Y5621D01*
X13620Y5615D01*
X13612Y5608D01*
X13603Y5602D01*
X13603D01*
X13602Y5602D01*
X13601Y5601D01*
X13599Y5600D01*
X13596Y5599D01*
X13594Y5598D01*
X13587Y5595D01*
X13579Y5593D01*
X13569Y5591D01*
X13559Y5589D01*
X13548Y5588D01*
X13543D01*
X13539Y5589D01*
X13535Y5589D01*
X13531Y5590D01*
X13525Y5591D01*
X13519Y5592D01*
X13507Y5596D01*
X13500Y5599D01*
X13494Y5601D01*
X13487Y5605D01*
X13481Y5609D01*
X13475Y5614D01*
X13469Y5619D01*
X13468Y5620D01*
X13467Y5621D01*
X13466Y5623D01*
X13464Y5625D01*
X13462Y5629D01*
X13459Y5632D01*
X13457Y5637D01*
X13454Y5643D01*
X13451Y5649D01*
X13448Y5656D01*
X13446Y5663D01*
X13444Y5671D01*
X13442Y5680D01*
X13440Y5689D01*
X13439Y5699D01*
X13439Y5710D01*
Y5711D01*
Y5712D01*
X13439Y5716D01*
Y5720D01*
X13440Y5725D01*
X13441Y5732D01*
X13442Y5738D01*
X13444Y5746D01*
X13445Y5753D01*
X13448Y5761D01*
X13451Y5769D01*
X13454Y5777D01*
X13458Y5785D01*
X13463Y5792D01*
X13468Y5799D01*
X13475Y5805D01*
X13475Y5806D01*
X13476Y5806D01*
X13478Y5807D01*
X13480Y5809D01*
X13483Y5811D01*
X13487Y5813D01*
X13490Y5816D01*
X13495Y5818D01*
X13500Y5820D01*
X13506Y5823D01*
X13518Y5827D01*
X13532Y5830D01*
X13540Y5831D01*
X13548Y5831D01*
X13552D01*
X13556Y5831D01*
D02*
G37*
G36*
X3553Y5327D02*
X3504D01*
Y5378D01*
X3553D01*
Y5327D01*
D02*
G37*
G36*
X8000Y5085D02*
X7954D01*
Y5128D01*
X7953Y5126D01*
X7952Y5124D01*
X7950Y5121D01*
X7948Y5117D01*
X7946Y5113D01*
X7942Y5109D01*
X7939Y5105D01*
X7934Y5100D01*
X7930Y5096D01*
X7925Y5092D01*
X7919Y5088D01*
X7912Y5085D01*
X7905Y5082D01*
X7898Y5081D01*
X7890Y5080D01*
X7886D01*
X7883Y5081D01*
X7880Y5081D01*
X7876Y5082D01*
X7867Y5085D01*
X7862Y5086D01*
X7857Y5088D01*
X7852Y5091D01*
X7847Y5094D01*
X7842Y5098D01*
X7837Y5103D01*
X7833Y5108D01*
X7829Y5113D01*
Y5114D01*
X7828Y5115D01*
X7827Y5117D01*
X7825Y5119D01*
X7823Y5123D01*
X7822Y5126D01*
X7820Y5131D01*
X7818Y5136D01*
X7816Y5142D01*
X7814Y5148D01*
X7812Y5155D01*
X7810Y5162D01*
X7809Y5170D01*
X7808Y5179D01*
X7808Y5187D01*
X7807Y5196D01*
Y5197D01*
Y5198D01*
Y5201D01*
X7808Y5204D01*
Y5208D01*
X7809Y5212D01*
X7809Y5217D01*
X7810Y5223D01*
X7813Y5236D01*
X7816Y5249D01*
X7822Y5263D01*
X7826Y5270D01*
X7829Y5276D01*
X7830Y5277D01*
X7830Y5278D01*
X7832Y5279D01*
X7834Y5282D01*
X7836Y5284D01*
X7839Y5287D01*
X7842Y5290D01*
X7846Y5293D01*
X7850Y5297D01*
X7854Y5300D01*
X7860Y5303D01*
X7866Y5305D01*
X7872Y5307D01*
X7878Y5309D01*
X7885Y5310D01*
X7892Y5310D01*
X7894D01*
X7897Y5310D01*
X7899D01*
X7903Y5309D01*
X7907Y5309D01*
X7916Y5306D01*
X7920Y5304D01*
X7925Y5301D01*
X7930Y5298D01*
X7935Y5294D01*
X7939Y5290D01*
X7944Y5285D01*
X7947Y5279D01*
X7951Y5272D01*
Y5378D01*
X8000D01*
Y5085D01*
D02*
G37*
G36*
X8401Y5308D02*
Y5255D01*
X8397D01*
X8395Y5255D01*
X8391Y5254D01*
X8388Y5254D01*
X8380Y5253D01*
X8372Y5249D01*
X8364Y5245D01*
X8360Y5242D01*
X8356Y5239D01*
X8353Y5235D01*
X8351Y5231D01*
Y5231D01*
X8350Y5230D01*
X8350Y5229D01*
X8349Y5227D01*
X8347Y5223D01*
X8345Y5217D01*
X8342Y5210D01*
X8340Y5202D01*
X8339Y5193D01*
X8339Y5185D01*
Y5085D01*
X8289D01*
Y5302D01*
X8334D01*
Y5250D01*
X8334Y5251D01*
X8335Y5253D01*
X8336Y5255D01*
X8338Y5260D01*
X8341Y5267D01*
X8344Y5274D01*
X8349Y5281D01*
X8354Y5288D01*
X8360Y5294D01*
X8361Y5295D01*
X8363Y5297D01*
X8366Y5299D01*
X8370Y5301D01*
X8376Y5304D01*
X8381Y5306D01*
X8388Y5308D01*
X8394Y5308D01*
X8398D01*
X8401Y5308D01*
D02*
G37*
G36*
X7786D02*
Y5255D01*
X7782D01*
X7780Y5255D01*
X7777Y5254D01*
X7773Y5254D01*
X7766Y5253D01*
X7757Y5249D01*
X7749Y5245D01*
X7745Y5242D01*
X7742Y5239D01*
X7739Y5235D01*
X7736Y5231D01*
Y5231D01*
X7735Y5230D01*
X7735Y5229D01*
X7734Y5227D01*
X7732Y5223D01*
X7730Y5217D01*
X7728Y5210D01*
X7726Y5202D01*
X7724Y5193D01*
X7724Y5185D01*
Y5085D01*
X7675D01*
Y5302D01*
X7719D01*
Y5250D01*
X7720Y5251D01*
X7720Y5253D01*
X7721Y5255D01*
X7723Y5260D01*
X7726Y5267D01*
X7729Y5274D01*
X7734Y5281D01*
X7739Y5288D01*
X7745Y5294D01*
X7746Y5295D01*
X7748Y5297D01*
X7751Y5299D01*
X7756Y5301D01*
X7761Y5304D01*
X7767Y5306D01*
X7773Y5308D01*
X7779Y5308D01*
X7783D01*
X7786Y5308D01*
D02*
G37*
G36*
X6167D02*
Y5255D01*
X6163D01*
X6161Y5255D01*
X6157Y5254D01*
X6154Y5254D01*
X6146Y5253D01*
X6138Y5249D01*
X6130Y5245D01*
X6126Y5242D01*
X6122Y5239D01*
X6119Y5235D01*
X6117Y5231D01*
Y5231D01*
X6116Y5230D01*
X6116Y5229D01*
X6115Y5227D01*
X6113Y5223D01*
X6111Y5217D01*
X6108Y5210D01*
X6106Y5202D01*
X6105Y5193D01*
X6105Y5185D01*
Y5085D01*
X6056D01*
Y5302D01*
X6100D01*
Y5250D01*
X6100Y5251D01*
X6101Y5253D01*
X6102Y5255D01*
X6104Y5260D01*
X6107Y5267D01*
X6110Y5274D01*
X6115Y5281D01*
X6120Y5288D01*
X6126Y5294D01*
X6127Y5295D01*
X6129Y5297D01*
X6132Y5299D01*
X6137Y5301D01*
X6142Y5304D01*
X6147Y5306D01*
X6154Y5308D01*
X6160Y5308D01*
X6164D01*
X6167Y5308D01*
D02*
G37*
G36*
X5481D02*
Y5255D01*
X5477D01*
X5475Y5255D01*
X5472Y5254D01*
X5468Y5254D01*
X5460Y5253D01*
X5452Y5249D01*
X5444Y5245D01*
X5440Y5242D01*
X5436Y5239D01*
X5434Y5235D01*
X5431Y5231D01*
Y5231D01*
X5430Y5230D01*
X5430Y5229D01*
X5429Y5227D01*
X5427Y5223D01*
X5425Y5217D01*
X5422Y5210D01*
X5421Y5202D01*
X5419Y5193D01*
X5419Y5185D01*
Y5085D01*
X5370D01*
Y5302D01*
X5414D01*
Y5250D01*
X5415Y5251D01*
X5415Y5253D01*
X5416Y5255D01*
X5418Y5260D01*
X5421Y5267D01*
X5424Y5274D01*
X5429Y5281D01*
X5434Y5288D01*
X5440Y5294D01*
X5441Y5295D01*
X5443Y5297D01*
X5446Y5299D01*
X5451Y5301D01*
X5456Y5304D01*
X5461Y5306D01*
X5468Y5308D01*
X5474Y5308D01*
X5478D01*
X5481Y5308D01*
D02*
G37*
G36*
X3973D02*
Y5255D01*
X3969D01*
X3967Y5255D01*
X3964Y5254D01*
X3961Y5254D01*
X3953Y5253D01*
X3944Y5249D01*
X3936Y5245D01*
X3932Y5242D01*
X3929Y5239D01*
X3926Y5235D01*
X3923Y5231D01*
Y5231D01*
X3923Y5230D01*
X3922Y5229D01*
X3921Y5227D01*
X3919Y5223D01*
X3917Y5217D01*
X3915Y5210D01*
X3913Y5202D01*
X3911Y5193D01*
X3911Y5185D01*
Y5085D01*
X3862D01*
Y5302D01*
X3906D01*
Y5250D01*
X3907Y5251D01*
X3907Y5253D01*
X3908Y5255D01*
X3910Y5260D01*
X3913Y5267D01*
X3917Y5274D01*
X3921Y5281D01*
X3926Y5288D01*
X3932Y5294D01*
X3933Y5295D01*
X3935Y5297D01*
X3938Y5299D01*
X3943Y5301D01*
X3948Y5304D01*
X3954Y5306D01*
X3960Y5308D01*
X3967Y5308D01*
X3970D01*
X3973Y5308D01*
D02*
G37*
G36*
X5725Y5085D02*
X5681D01*
X5642Y5237D01*
X5603Y5085D01*
X5558D01*
X5491Y5302D01*
X5543D01*
X5586Y5155D01*
X5623Y5302D01*
X5668D01*
X5706Y5155D01*
X5748Y5302D01*
X5789D01*
X5725Y5085D01*
D02*
G37*
G36*
X4795D02*
X4750D01*
Y5131D01*
X4749Y5129D01*
X4748Y5127D01*
X4746Y5124D01*
X4744Y5120D01*
X4742Y5115D01*
X4738Y5111D01*
X4735Y5106D01*
X4730Y5101D01*
X4725Y5097D01*
X4720Y5092D01*
X4713Y5088D01*
X4707Y5085D01*
X4699Y5083D01*
X4690Y5081D01*
X4682Y5080D01*
X4679D01*
X4676Y5081D01*
X4671Y5081D01*
X4664Y5083D01*
X4657Y5085D01*
X4649Y5088D01*
X4641Y5092D01*
X4634Y5099D01*
X4633Y5099D01*
X4631Y5102D01*
X4628Y5106D01*
X4626Y5111D01*
X4622Y5119D01*
X4620Y5128D01*
X4618Y5138D01*
X4617Y5149D01*
Y5302D01*
X4667D01*
Y5160D01*
Y5160D01*
Y5159D01*
Y5156D01*
X4668Y5152D01*
X4669Y5148D01*
X4670Y5142D01*
X4671Y5137D01*
X4674Y5133D01*
X4677Y5129D01*
X4678Y5129D01*
X4679Y5128D01*
X4681Y5127D01*
X4684Y5126D01*
X4687Y5124D01*
X4690Y5123D01*
X4694Y5123D01*
X4698Y5122D01*
X4699D01*
X4701Y5123D01*
X4704Y5123D01*
X4707Y5124D01*
X4713Y5126D01*
X4718Y5128D01*
X4724Y5132D01*
X4730Y5136D01*
X4731Y5137D01*
X4732Y5139D01*
X4733Y5141D01*
X4735Y5143D01*
X4737Y5146D01*
X4738Y5149D01*
X4739Y5153D01*
X4741Y5158D01*
X4743Y5163D01*
X4744Y5168D01*
X4745Y5174D01*
X4745Y5181D01*
X4746Y5189D01*
Y5198D01*
Y5302D01*
X4795D01*
Y5085D01*
D02*
G37*
G36*
X7142Y5264D02*
X7143Y5266D01*
X7144Y5268D01*
X7146Y5271D01*
X7148Y5274D01*
X7151Y5279D01*
X7153Y5283D01*
X7157Y5287D01*
X7161Y5291D01*
X7166Y5296D01*
X7171Y5300D01*
X7177Y5303D01*
X7183Y5306D01*
X7190Y5309D01*
X7198Y5310D01*
X7206Y5310D01*
X7209D01*
X7212Y5310D01*
X7217Y5309D01*
X7222Y5308D01*
X7227Y5306D01*
X7233Y5304D01*
X7240Y5301D01*
X7246Y5297D01*
X7252Y5292D01*
X7257Y5285D01*
X7263Y5278D01*
X7267Y5269D01*
X7270Y5259D01*
X7272Y5247D01*
X7273Y5234D01*
Y5085D01*
X7224D01*
Y5227D01*
Y5227D01*
Y5228D01*
Y5230D01*
X7224Y5235D01*
X7223Y5240D01*
X7222Y5245D01*
X7220Y5250D01*
X7218Y5255D01*
X7214Y5259D01*
X7214Y5260D01*
X7213Y5260D01*
X7211Y5262D01*
X7208Y5264D01*
X7205Y5266D01*
X7201Y5267D01*
X7196Y5268D01*
X7191Y5268D01*
X7190D01*
X7188Y5268D01*
X7184Y5267D01*
X7179Y5267D01*
X7174Y5264D01*
X7168Y5261D01*
X7162Y5257D01*
X7156Y5252D01*
X7156Y5251D01*
X7154Y5248D01*
X7152Y5244D01*
X7149Y5239D01*
X7147Y5231D01*
X7145Y5227D01*
X7145Y5222D01*
X7144Y5216D01*
X7143Y5211D01*
X7142Y5204D01*
Y5197D01*
Y5085D01*
X7093D01*
Y5378D01*
X7142D01*
Y5264D01*
D02*
G37*
G36*
X6863Y5196D02*
X6907D01*
Y5151D01*
X6863D01*
Y5085D01*
X6809D01*
Y5151D01*
X6678D01*
Y5190D01*
X6809Y5384D01*
X6863D01*
Y5196D01*
D02*
G37*
G36*
X6393Y5264D02*
X6394Y5266D01*
X6395Y5268D01*
X6397Y5271D01*
X6399Y5274D01*
X6401Y5279D01*
X6404Y5283D01*
X6408Y5287D01*
X6412Y5291D01*
X6417Y5296D01*
X6422Y5300D01*
X6428Y5303D01*
X6434Y5306D01*
X6441Y5309D01*
X6448Y5310D01*
X6457Y5310D01*
X6460D01*
X6463Y5310D01*
X6467Y5309D01*
X6473Y5308D01*
X6478Y5306D01*
X6484Y5304D01*
X6491Y5301D01*
X6497Y5297D01*
X6503Y5292D01*
X6508Y5285D01*
X6513Y5278D01*
X6518Y5269D01*
X6521Y5259D01*
X6523Y5247D01*
X6524Y5234D01*
Y5085D01*
X6475D01*
Y5227D01*
Y5227D01*
Y5228D01*
Y5230D01*
X6474Y5235D01*
X6473Y5240D01*
X6473Y5245D01*
X6471Y5250D01*
X6468Y5255D01*
X6465Y5259D01*
X6465Y5260D01*
X6463Y5260D01*
X6461Y5262D01*
X6459Y5264D01*
X6455Y5266D01*
X6451Y5267D01*
X6447Y5268D01*
X6442Y5268D01*
X6441D01*
X6439Y5268D01*
X6435Y5267D01*
X6430Y5267D01*
X6424Y5264D01*
X6418Y5261D01*
X6412Y5257D01*
X6407Y5252D01*
X6406Y5251D01*
X6405Y5248D01*
X6403Y5244D01*
X6400Y5239D01*
X6398Y5231D01*
X6396Y5227D01*
X6395Y5222D01*
X6394Y5216D01*
X6393Y5211D01*
X6393Y5204D01*
Y5197D01*
Y5085D01*
X6344D01*
Y5378D01*
X6393D01*
Y5264D01*
D02*
G37*
G36*
X4477Y5378D02*
X4483Y5377D01*
X4491Y5377D01*
X4499Y5376D01*
X4507Y5374D01*
X4514Y5372D01*
X4515Y5372D01*
X4518Y5371D01*
X4521Y5369D01*
X4526Y5366D01*
X4531Y5363D01*
X4537Y5359D01*
X4542Y5353D01*
X4548Y5347D01*
X4548Y5346D01*
X4550Y5343D01*
X4552Y5339D01*
X4555Y5334D01*
X4558Y5327D01*
X4559Y5320D01*
X4561Y5311D01*
X4562Y5302D01*
Y5301D01*
Y5301D01*
Y5299D01*
Y5298D01*
X4561Y5293D01*
X4560Y5287D01*
X4558Y5281D01*
X4556Y5274D01*
X4552Y5267D01*
X4547Y5260D01*
X4547Y5259D01*
X4545Y5257D01*
X4542Y5254D01*
X4537Y5250D01*
X4532Y5246D01*
X4525Y5242D01*
X4517Y5239D01*
X4508Y5237D01*
X4509D01*
X4510Y5236D01*
X4511D01*
X4514Y5235D01*
X4519Y5234D01*
X4526Y5232D01*
X4533Y5228D01*
X4541Y5224D01*
X4549Y5218D01*
X4555Y5211D01*
X4556Y5211D01*
X4558Y5208D01*
X4560Y5204D01*
X4564Y5198D01*
X4566Y5191D01*
X4569Y5183D01*
X4571Y5174D01*
X4571Y5165D01*
Y5164D01*
Y5163D01*
Y5161D01*
X4571Y5159D01*
Y5156D01*
X4570Y5153D01*
X4569Y5145D01*
X4566Y5136D01*
X4562Y5126D01*
X4557Y5117D01*
X4553Y5112D01*
X4549Y5107D01*
X4549Y5107D01*
X4548Y5106D01*
X4547Y5105D01*
X4545Y5104D01*
X4543Y5102D01*
X4540Y5100D01*
X4536Y5098D01*
X4533Y5096D01*
X4528Y5094D01*
X4523Y5092D01*
X4517Y5090D01*
X4511Y5088D01*
X4504Y5087D01*
X4497Y5086D01*
X4489Y5085D01*
X4481Y5085D01*
X4352D01*
Y5378D01*
X4471D01*
X4477Y5378D01*
D02*
G37*
G36*
X3661Y5085D02*
X3612D01*
Y5378D01*
X3661D01*
Y5085D01*
D02*
G37*
G36*
X3553D02*
X3504D01*
Y5302D01*
X3553D01*
Y5085D01*
D02*
G37*
G36*
X3469Y5333D02*
X3338D01*
Y5253D01*
X3441D01*
Y5208D01*
X3338D01*
Y5085D01*
X3283D01*
Y5378D01*
X3469D01*
Y5333D01*
D02*
G37*
G36*
X8156Y5306D02*
X8159Y5305D01*
X8164Y5304D01*
X8169Y5304D01*
X8174Y5302D01*
X8180Y5301D01*
X8186Y5298D01*
X8192Y5296D01*
X8198Y5293D01*
X8203Y5289D01*
X8209Y5285D01*
X8214Y5280D01*
X8220Y5274D01*
X8220Y5274D01*
X8220Y5273D01*
X8222Y5271D01*
X8224Y5269D01*
X8226Y5266D01*
X8227Y5262D01*
X8230Y5257D01*
X8233Y5252D01*
X8235Y5247D01*
X8237Y5240D01*
X8239Y5234D01*
X8241Y5226D01*
X8243Y5218D01*
X8244Y5211D01*
X8245Y5202D01*
X8245Y5192D01*
X8245Y5187D01*
X8096D01*
Y5186D01*
Y5186D01*
Y5183D01*
X8096Y5179D01*
Y5174D01*
X8096Y5168D01*
X8097Y5162D01*
X8098Y5157D01*
X8100Y5151D01*
Y5151D01*
X8101Y5149D01*
X8102Y5147D01*
X8103Y5143D01*
X8106Y5140D01*
X8109Y5136D01*
X8112Y5132D01*
X8116Y5128D01*
X8117Y5128D01*
X8119Y5127D01*
X8121Y5125D01*
X8125Y5124D01*
X8129Y5122D01*
X8135Y5120D01*
X8141Y5119D01*
X8148Y5118D01*
X8149D01*
X8151Y5119D01*
X8154D01*
X8157Y5119D01*
X8160Y5120D01*
X8168Y5123D01*
X8171Y5125D01*
X8176Y5127D01*
X8180Y5130D01*
X8184Y5133D01*
X8188Y5137D01*
X8191Y5142D01*
X8194Y5148D01*
X8197Y5154D01*
X8241Y5148D01*
Y5147D01*
X8240Y5146D01*
X8240Y5145D01*
X8239Y5142D01*
X8237Y5137D01*
X8233Y5130D01*
X8229Y5123D01*
X8223Y5115D01*
X8216Y5106D01*
X8208Y5099D01*
X8207D01*
X8207Y5098D01*
X8205Y5097D01*
X8203Y5096D01*
X8201Y5095D01*
X8198Y5093D01*
X8194Y5092D01*
X8190Y5090D01*
X8181Y5086D01*
X8171Y5083D01*
X8158Y5081D01*
X8145Y5080D01*
X8141D01*
X8138Y5081D01*
X8133Y5081D01*
X8129Y5082D01*
X8124Y5083D01*
X8119Y5084D01*
X8107Y5088D01*
X8101Y5090D01*
X8095Y5093D01*
X8089Y5097D01*
X8083Y5101D01*
X8077Y5105D01*
X8072Y5111D01*
X8071Y5111D01*
X8071Y5112D01*
X8070Y5114D01*
X8068Y5116D01*
X8065Y5119D01*
X8063Y5123D01*
X8061Y5127D01*
X8059Y5132D01*
X8056Y5138D01*
X8053Y5144D01*
X8051Y5150D01*
X8049Y5158D01*
X8047Y5166D01*
X8046Y5174D01*
X8045Y5183D01*
X8045Y5192D01*
Y5193D01*
Y5195D01*
Y5197D01*
X8045Y5201D01*
X8046Y5205D01*
X8046Y5210D01*
X8047Y5215D01*
X8048Y5221D01*
X8052Y5234D01*
X8054Y5241D01*
X8056Y5248D01*
X8059Y5254D01*
X8063Y5261D01*
X8067Y5268D01*
X8072Y5274D01*
X8073Y5274D01*
X8074Y5275D01*
X8075Y5277D01*
X8077Y5279D01*
X8080Y5281D01*
X8084Y5284D01*
X8088Y5287D01*
X8092Y5290D01*
X8097Y5293D01*
X8103Y5296D01*
X8109Y5299D01*
X8116Y5301D01*
X8123Y5304D01*
X8131Y5305D01*
X8139Y5306D01*
X8148Y5306D01*
X8152D01*
X8156Y5306D01*
D02*
G37*
G36*
X7538D02*
X7542Y5305D01*
X7546Y5304D01*
X7550Y5304D01*
X7556Y5303D01*
X7567Y5298D01*
X7573Y5296D01*
X7579Y5293D01*
X7585Y5290D01*
X7591Y5285D01*
X7596Y5280D01*
X7602Y5275D01*
X7602Y5274D01*
X7603Y5273D01*
X7605Y5272D01*
X7606Y5269D01*
X7608Y5266D01*
X7611Y5262D01*
X7613Y5258D01*
X7616Y5253D01*
X7618Y5248D01*
X7621Y5242D01*
X7624Y5235D01*
X7626Y5228D01*
X7627Y5220D01*
X7629Y5212D01*
X7630Y5203D01*
X7630Y5194D01*
Y5193D01*
Y5192D01*
Y5189D01*
X7630Y5186D01*
X7629Y5181D01*
X7629Y5176D01*
X7628Y5170D01*
X7626Y5164D01*
X7623Y5151D01*
X7621Y5144D01*
X7617Y5137D01*
X7614Y5130D01*
X7611Y5124D01*
X7606Y5117D01*
X7601Y5111D01*
X7600Y5111D01*
X7599Y5110D01*
X7598Y5109D01*
X7596Y5107D01*
X7592Y5104D01*
X7589Y5102D01*
X7585Y5099D01*
X7581Y5096D01*
X7576Y5093D01*
X7570Y5090D01*
X7564Y5088D01*
X7557Y5086D01*
X7550Y5083D01*
X7543Y5082D01*
X7536Y5081D01*
X7527Y5080D01*
X7525D01*
X7523Y5081D01*
X7519D01*
X7515Y5081D01*
X7511Y5082D01*
X7505Y5083D01*
X7500Y5085D01*
X7494Y5086D01*
X7488Y5089D01*
X7482Y5092D01*
X7476Y5095D01*
X7470Y5099D01*
X7464Y5104D01*
X7459Y5109D01*
X7454Y5115D01*
X7453Y5115D01*
X7453Y5116D01*
X7451Y5118D01*
X7449Y5121D01*
X7448Y5124D01*
X7446Y5128D01*
X7443Y5132D01*
X7441Y5137D01*
X7438Y5143D01*
X7436Y5149D01*
X7432Y5162D01*
X7429Y5178D01*
X7429Y5186D01*
X7428Y5194D01*
Y5194D01*
Y5196D01*
Y5198D01*
X7429Y5202D01*
X7429Y5206D01*
X7430Y5211D01*
X7431Y5216D01*
X7432Y5222D01*
X7435Y5235D01*
X7437Y5241D01*
X7440Y5248D01*
X7443Y5254D01*
X7447Y5261D01*
X7451Y5268D01*
X7456Y5274D01*
X7456Y5274D01*
X7457Y5275D01*
X7459Y5277D01*
X7461Y5279D01*
X7464Y5281D01*
X7468Y5284D01*
X7471Y5287D01*
X7476Y5290D01*
X7481Y5293D01*
X7487Y5296D01*
X7493Y5299D01*
X7499Y5301D01*
X7506Y5304D01*
X7514Y5305D01*
X7522Y5306D01*
X7530Y5306D01*
X7535D01*
X7538Y5306D01*
D02*
G37*
G36*
X5919D02*
X5922Y5305D01*
X5926Y5304D01*
X5931Y5304D01*
X5937Y5303D01*
X5948Y5298D01*
X5954Y5296D01*
X5960Y5293D01*
X5966Y5290D01*
X5971Y5285D01*
X5977Y5280D01*
X5982Y5275D01*
X5983Y5274D01*
X5984Y5273D01*
X5985Y5272D01*
X5987Y5269D01*
X5989Y5266D01*
X5991Y5262D01*
X5994Y5258D01*
X5997Y5253D01*
X5999Y5248D01*
X6002Y5242D01*
X6004Y5235D01*
X6007Y5228D01*
X6008Y5220D01*
X6009Y5212D01*
X6010Y5203D01*
X6011Y5194D01*
Y5193D01*
Y5192D01*
Y5189D01*
X6010Y5186D01*
X6010Y5181D01*
X6009Y5176D01*
X6008Y5170D01*
X6007Y5164D01*
X6004Y5151D01*
X6001Y5144D01*
X5998Y5137D01*
X5995Y5130D01*
X5991Y5124D01*
X5987Y5117D01*
X5982Y5111D01*
X5981Y5111D01*
X5980Y5110D01*
X5979Y5109D01*
X5976Y5107D01*
X5973Y5104D01*
X5970Y5102D01*
X5966Y5099D01*
X5962Y5096D01*
X5957Y5093D01*
X5951Y5090D01*
X5945Y5088D01*
X5938Y5086D01*
X5931Y5083D01*
X5924Y5082D01*
X5916Y5081D01*
X5908Y5080D01*
X5906D01*
X5903Y5081D01*
X5900D01*
X5896Y5081D01*
X5891Y5082D01*
X5886Y5083D01*
X5881Y5085D01*
X5875Y5086D01*
X5869Y5089D01*
X5863Y5092D01*
X5857Y5095D01*
X5851Y5099D01*
X5845Y5104D01*
X5839Y5109D01*
X5834Y5115D01*
X5834Y5115D01*
X5833Y5116D01*
X5832Y5118D01*
X5830Y5121D01*
X5828Y5124D01*
X5826Y5128D01*
X5824Y5132D01*
X5822Y5137D01*
X5819Y5143D01*
X5817Y5149D01*
X5813Y5162D01*
X5810Y5178D01*
X5809Y5186D01*
X5809Y5194D01*
Y5194D01*
Y5196D01*
Y5198D01*
X5809Y5202D01*
X5810Y5206D01*
X5810Y5211D01*
X5811Y5216D01*
X5813Y5222D01*
X5816Y5235D01*
X5818Y5241D01*
X5820Y5248D01*
X5824Y5254D01*
X5827Y5261D01*
X5832Y5268D01*
X5837Y5274D01*
X5837Y5274D01*
X5838Y5275D01*
X5839Y5277D01*
X5842Y5279D01*
X5845Y5281D01*
X5848Y5284D01*
X5852Y5287D01*
X5857Y5290D01*
X5862Y5293D01*
X5867Y5296D01*
X5873Y5299D01*
X5880Y5301D01*
X5887Y5304D01*
X5895Y5305D01*
X5903Y5306D01*
X5911Y5306D01*
X5915D01*
X5919Y5306D01*
D02*
G37*
G36*
X5236D02*
X5240Y5305D01*
X5244Y5304D01*
X5249Y5304D01*
X5254Y5302D01*
X5260Y5301D01*
X5266Y5298D01*
X5272Y5296D01*
X5278Y5293D01*
X5284Y5289D01*
X5290Y5285D01*
X5295Y5280D01*
X5300Y5274D01*
X5300Y5274D01*
X5301Y5273D01*
X5302Y5271D01*
X5304Y5269D01*
X5306Y5266D01*
X5308Y5262D01*
X5310Y5257D01*
X5313Y5252D01*
X5315Y5247D01*
X5317Y5240D01*
X5319Y5234D01*
X5321Y5226D01*
X5323Y5218D01*
X5324Y5211D01*
X5325Y5202D01*
X5325Y5192D01*
X5325Y5187D01*
X5176D01*
Y5186D01*
Y5186D01*
Y5183D01*
X5176Y5179D01*
Y5174D01*
X5177Y5168D01*
X5178Y5162D01*
X5179Y5157D01*
X5180Y5151D01*
Y5151D01*
X5181Y5149D01*
X5182Y5147D01*
X5184Y5143D01*
X5186Y5140D01*
X5189Y5136D01*
X5192Y5132D01*
X5197Y5128D01*
X5197Y5128D01*
X5199Y5127D01*
X5202Y5125D01*
X5205Y5124D01*
X5210Y5122D01*
X5215Y5120D01*
X5221Y5119D01*
X5228Y5118D01*
X5229D01*
X5231Y5119D01*
X5234D01*
X5237Y5119D01*
X5240Y5120D01*
X5248Y5123D01*
X5252Y5125D01*
X5256Y5127D01*
X5260Y5130D01*
X5264Y5133D01*
X5268Y5137D01*
X5271Y5142D01*
X5274Y5148D01*
X5277Y5154D01*
X5321Y5148D01*
Y5147D01*
X5321Y5146D01*
X5320Y5145D01*
X5319Y5142D01*
X5317Y5137D01*
X5314Y5130D01*
X5310Y5123D01*
X5304Y5115D01*
X5297Y5106D01*
X5288Y5099D01*
X5287D01*
X5287Y5098D01*
X5285Y5097D01*
X5283Y5096D01*
X5281Y5095D01*
X5278Y5093D01*
X5274Y5092D01*
X5271Y5090D01*
X5261Y5086D01*
X5251Y5083D01*
X5239Y5081D01*
X5225Y5080D01*
X5221D01*
X5218Y5081D01*
X5214Y5081D01*
X5210Y5082D01*
X5205Y5083D01*
X5199Y5084D01*
X5187Y5088D01*
X5181Y5090D01*
X5175Y5093D01*
X5169Y5097D01*
X5163Y5101D01*
X5158Y5105D01*
X5152Y5111D01*
X5152Y5111D01*
X5151Y5112D01*
X5150Y5114D01*
X5148Y5116D01*
X5146Y5119D01*
X5143Y5123D01*
X5141Y5127D01*
X5139Y5132D01*
X5136Y5138D01*
X5134Y5144D01*
X5131Y5150D01*
X5129Y5158D01*
X5127Y5166D01*
X5126Y5174D01*
X5125Y5183D01*
X5125Y5192D01*
Y5193D01*
Y5195D01*
Y5197D01*
X5125Y5201D01*
X5126Y5205D01*
X5126Y5210D01*
X5127Y5215D01*
X5129Y5221D01*
X5132Y5234D01*
X5134Y5241D01*
X5136Y5248D01*
X5140Y5254D01*
X5143Y5261D01*
X5148Y5268D01*
X5153Y5274D01*
X5153Y5274D01*
X5154Y5275D01*
X5155Y5277D01*
X5158Y5279D01*
X5161Y5281D01*
X5164Y5284D01*
X5168Y5287D01*
X5173Y5290D01*
X5178Y5293D01*
X5183Y5296D01*
X5190Y5299D01*
X5196Y5301D01*
X5204Y5304D01*
X5211Y5305D01*
X5219Y5306D01*
X5228Y5306D01*
X5233D01*
X5236Y5306D01*
D02*
G37*
G36*
X4105D02*
X4109Y5305D01*
X4114Y5304D01*
X4118Y5304D01*
X4124Y5302D01*
X4129Y5301D01*
X4135Y5298D01*
X4141Y5296D01*
X4148Y5293D01*
X4153Y5289D01*
X4159Y5285D01*
X4164Y5280D01*
X4169Y5274D01*
X4170Y5274D01*
X4170Y5273D01*
X4172Y5271D01*
X4173Y5269D01*
X4175Y5266D01*
X4177Y5262D01*
X4179Y5257D01*
X4182Y5252D01*
X4185Y5247D01*
X4187Y5240D01*
X4189Y5234D01*
X4191Y5226D01*
X4192Y5218D01*
X4194Y5211D01*
X4194Y5202D01*
X4195Y5192D01*
X4194Y5187D01*
X4045D01*
Y5186D01*
Y5186D01*
Y5183D01*
X4046Y5179D01*
Y5174D01*
X4046Y5168D01*
X4047Y5162D01*
X4048Y5157D01*
X4049Y5151D01*
Y5151D01*
X4050Y5149D01*
X4051Y5147D01*
X4053Y5143D01*
X4055Y5140D01*
X4058Y5136D01*
X4062Y5132D01*
X4066Y5128D01*
X4067Y5128D01*
X4068Y5127D01*
X4071Y5125D01*
X4075Y5124D01*
X4079Y5122D01*
X4085Y5120D01*
X4091Y5119D01*
X4098Y5118D01*
X4099D01*
X4101Y5119D01*
X4104D01*
X4106Y5119D01*
X4110Y5120D01*
X4117Y5123D01*
X4121Y5125D01*
X4125Y5127D01*
X4129Y5130D01*
X4134Y5133D01*
X4137Y5137D01*
X4141Y5142D01*
X4144Y5148D01*
X4147Y5154D01*
X4191Y5148D01*
Y5147D01*
X4190Y5146D01*
X4190Y5145D01*
X4189Y5142D01*
X4186Y5137D01*
X4183Y5130D01*
X4179Y5123D01*
X4173Y5115D01*
X4166Y5106D01*
X4157Y5099D01*
X4157D01*
X4156Y5098D01*
X4155Y5097D01*
X4153Y5096D01*
X4150Y5095D01*
X4148Y5093D01*
X4144Y5092D01*
X4140Y5090D01*
X4131Y5086D01*
X4120Y5083D01*
X4108Y5081D01*
X4095Y5080D01*
X4091D01*
X4087Y5081D01*
X4083Y5081D01*
X4079Y5082D01*
X4074Y5083D01*
X4069Y5084D01*
X4057Y5088D01*
X4051Y5090D01*
X4045Y5093D01*
X4039Y5097D01*
X4033Y5101D01*
X4027Y5105D01*
X4022Y5111D01*
X4021Y5111D01*
X4020Y5112D01*
X4019Y5114D01*
X4017Y5116D01*
X4015Y5119D01*
X4013Y5123D01*
X4011Y5127D01*
X4008Y5132D01*
X4005Y5138D01*
X4003Y5144D01*
X4001Y5150D01*
X3998Y5158D01*
X3997Y5166D01*
X3996Y5174D01*
X3995Y5183D01*
X3994Y5192D01*
Y5193D01*
Y5195D01*
Y5197D01*
X3995Y5201D01*
X3995Y5205D01*
X3996Y5210D01*
X3997Y5215D01*
X3998Y5221D01*
X4001Y5234D01*
X4004Y5241D01*
X4006Y5248D01*
X4009Y5254D01*
X4013Y5261D01*
X4017Y5268D01*
X4022Y5274D01*
X4023Y5274D01*
X4023Y5275D01*
X4025Y5277D01*
X4027Y5279D01*
X4030Y5281D01*
X4033Y5284D01*
X4037Y5287D01*
X4042Y5290D01*
X4047Y5293D01*
X4053Y5296D01*
X4059Y5299D01*
X4066Y5301D01*
X4073Y5304D01*
X4080Y5305D01*
X4089Y5306D01*
X4098Y5306D01*
X4102D01*
X4105Y5306D01*
D02*
G37*
G36*
X7004Y5302D02*
X7048D01*
Y5264D01*
X7004D01*
Y5158D01*
Y5157D01*
Y5155D01*
X7005Y5151D01*
X7005Y5147D01*
X7006Y5142D01*
X7008Y5137D01*
X7009Y5133D01*
X7012Y5130D01*
X7012Y5129D01*
X7013Y5129D01*
X7015Y5127D01*
X7018Y5126D01*
X7022Y5124D01*
X7027Y5124D01*
X7033Y5123D01*
X7039Y5122D01*
X7047D01*
X7052Y5123D01*
Y5085D01*
X7051D01*
X7048Y5084D01*
X7044Y5083D01*
X7039Y5082D01*
X7034Y5081D01*
X7028Y5081D01*
X7023Y5080D01*
X7014D01*
X7011Y5080D01*
X7006Y5081D01*
X7001Y5082D01*
X6995Y5083D01*
X6989Y5085D01*
X6984Y5087D01*
X6983Y5088D01*
X6982Y5089D01*
X6979Y5091D01*
X6976Y5093D01*
X6972Y5096D01*
X6969Y5100D01*
X6966Y5104D01*
X6963Y5109D01*
X6963Y5109D01*
X6962Y5111D01*
X6961Y5115D01*
X6960Y5119D01*
X6958Y5125D01*
X6958Y5133D01*
X6957Y5141D01*
X6957Y5151D01*
Y5264D01*
X6929D01*
Y5302D01*
X6959D01*
X6964Y5358D01*
X7004Y5362D01*
Y5302D01*
D02*
G37*
G36*
X6255D02*
X6299D01*
Y5264D01*
X6255D01*
Y5158D01*
Y5157D01*
Y5155D01*
X6256Y5151D01*
X6256Y5147D01*
X6257Y5142D01*
X6258Y5137D01*
X6260Y5133D01*
X6262Y5130D01*
X6263Y5129D01*
X6264Y5129D01*
X6266Y5127D01*
X6269Y5126D01*
X6273Y5124D01*
X6277Y5124D01*
X6283Y5123D01*
X6290Y5122D01*
X6298D01*
X6303Y5123D01*
Y5085D01*
X6302D01*
X6299Y5084D01*
X6295Y5083D01*
X6290Y5082D01*
X6285Y5081D01*
X6279Y5081D01*
X6274Y5080D01*
X6265D01*
X6262Y5080D01*
X6257Y5081D01*
X6252Y5082D01*
X6246Y5083D01*
X6240Y5085D01*
X6235Y5087D01*
X6234Y5088D01*
X6232Y5089D01*
X6230Y5091D01*
X6227Y5093D01*
X6223Y5096D01*
X6220Y5100D01*
X6217Y5104D01*
X6214Y5109D01*
X6213Y5109D01*
X6213Y5111D01*
X6212Y5115D01*
X6211Y5119D01*
X6209Y5125D01*
X6208Y5133D01*
X6208Y5141D01*
X6207Y5151D01*
Y5264D01*
X6180D01*
Y5302D01*
X6210D01*
X6215Y5358D01*
X6255Y5362D01*
Y5302D01*
D02*
G37*
G36*
X5050D02*
X5093D01*
Y5264D01*
X5050D01*
Y5158D01*
Y5157D01*
Y5155D01*
X5050Y5151D01*
X5051Y5147D01*
X5052Y5142D01*
X5053Y5137D01*
X5055Y5133D01*
X5057Y5130D01*
X5058Y5129D01*
X5059Y5129D01*
X5061Y5127D01*
X5064Y5126D01*
X5068Y5124D01*
X5072Y5124D01*
X5078Y5123D01*
X5085Y5122D01*
X5093D01*
X5098Y5123D01*
Y5085D01*
X5097D01*
X5094Y5084D01*
X5090Y5083D01*
X5085Y5082D01*
X5080Y5081D01*
X5074Y5081D01*
X5068Y5080D01*
X5060D01*
X5056Y5080D01*
X5052Y5081D01*
X5047Y5082D01*
X5041Y5083D01*
X5035Y5085D01*
X5030Y5087D01*
X5029Y5088D01*
X5027Y5089D01*
X5024Y5091D01*
X5022Y5093D01*
X5018Y5096D01*
X5015Y5100D01*
X5012Y5104D01*
X5009Y5109D01*
X5008Y5109D01*
X5008Y5111D01*
X5007Y5115D01*
X5006Y5119D01*
X5004Y5125D01*
X5003Y5133D01*
X5003Y5141D01*
X5002Y5151D01*
Y5264D01*
X4975D01*
Y5302D01*
X5005D01*
X5010Y5358D01*
X5050Y5362D01*
Y5302D01*
D02*
G37*
G36*
X4908D02*
X4951D01*
Y5264D01*
X4908D01*
Y5158D01*
Y5157D01*
Y5155D01*
X4908Y5151D01*
X4909Y5147D01*
X4910Y5142D01*
X4911Y5137D01*
X4913Y5133D01*
X4915Y5130D01*
X4916Y5129D01*
X4917Y5129D01*
X4919Y5127D01*
X4922Y5126D01*
X4925Y5124D01*
X4930Y5124D01*
X4936Y5123D01*
X4943Y5122D01*
X4951D01*
X4956Y5123D01*
Y5085D01*
X4955D01*
X4952Y5084D01*
X4948Y5083D01*
X4943Y5082D01*
X4937Y5081D01*
X4932Y5081D01*
X4926Y5080D01*
X4918D01*
X4914Y5080D01*
X4910Y5081D01*
X4905Y5082D01*
X4899Y5083D01*
X4893Y5085D01*
X4888Y5087D01*
X4887Y5088D01*
X4885Y5089D01*
X4882Y5091D01*
X4880Y5093D01*
X4876Y5096D01*
X4873Y5100D01*
X4869Y5104D01*
X4867Y5109D01*
X4866Y5109D01*
X4866Y5111D01*
X4865Y5115D01*
X4863Y5119D01*
X4862Y5125D01*
X4861Y5133D01*
X4861Y5141D01*
X4860Y5151D01*
Y5264D01*
X4833D01*
Y5302D01*
X4863D01*
X4868Y5358D01*
X4908Y5362D01*
Y5302D01*
D02*
G37*
G36*
X3773D02*
X3817D01*
Y5264D01*
X3773D01*
Y5158D01*
Y5157D01*
Y5155D01*
X3774Y5151D01*
X3774Y5147D01*
X3775Y5142D01*
X3776Y5137D01*
X3778Y5133D01*
X3781Y5130D01*
X3781Y5129D01*
X3782Y5129D01*
X3784Y5127D01*
X3787Y5126D01*
X3791Y5124D01*
X3795Y5124D01*
X3801Y5123D01*
X3808Y5122D01*
X3816D01*
X3821Y5123D01*
Y5085D01*
X3820D01*
X3817Y5084D01*
X3813Y5083D01*
X3808Y5082D01*
X3803Y5081D01*
X3797Y5081D01*
X3792Y5080D01*
X3783D01*
X3780Y5080D01*
X3775Y5081D01*
X3770Y5082D01*
X3764Y5083D01*
X3758Y5085D01*
X3753Y5087D01*
X3752Y5088D01*
X3750Y5089D01*
X3748Y5091D01*
X3745Y5093D01*
X3741Y5096D01*
X3738Y5100D01*
X3735Y5104D01*
X3732Y5109D01*
X3731Y5109D01*
X3731Y5111D01*
X3730Y5115D01*
X3729Y5119D01*
X3727Y5125D01*
X3726Y5133D01*
X3726Y5141D01*
X3725Y5151D01*
Y5264D01*
X3698D01*
Y5302D01*
X3728D01*
X3733Y5358D01*
X3773Y5362D01*
Y5302D01*
D02*
G37*
%LPC*%
G36*
X15677Y8758D02*
X15676D01*
X15676Y8757D01*
X15674Y8757D01*
X15672Y8756D01*
X15670Y8755D01*
X15667Y8754D01*
X15664Y8754D01*
X15660Y8753D01*
X15656Y8751D01*
X15651Y8750D01*
X15646Y8749D01*
X15640Y8748D01*
X15634Y8746D01*
X15627Y8745D01*
X15620Y8744D01*
X15612Y8742D01*
X15611D01*
X15608Y8742D01*
X15604Y8741D01*
X15598Y8740D01*
X15593Y8739D01*
X15587Y8738D01*
X15582Y8736D01*
X15578Y8735D01*
X15577D01*
X15576Y8734D01*
X15574Y8733D01*
X15572Y8731D01*
X15566Y8728D01*
X15562Y8722D01*
Y8722D01*
X15561Y8721D01*
X15560Y8719D01*
X15560Y8717D01*
X15559Y8714D01*
X15558Y8711D01*
X15557Y8707D01*
X15557Y8704D01*
Y8703D01*
Y8701D01*
X15557Y8698D01*
X15558Y8694D01*
X15560Y8690D01*
X15562Y8686D01*
X15565Y8681D01*
X15568Y8677D01*
X15569Y8677D01*
X15571Y8676D01*
X15573Y8674D01*
X15577Y8672D01*
X15582Y8670D01*
X15588Y8668D01*
X15595Y8667D01*
X15604Y8667D01*
X15607D01*
X15612Y8667D01*
X15617Y8668D01*
X15623Y8669D01*
X15630Y8671D01*
X15637Y8673D01*
X15644Y8677D01*
X15645Y8677D01*
X15647Y8679D01*
X15650Y8681D01*
X15653Y8684D01*
X15658Y8688D01*
X15662Y8692D01*
X15666Y8698D01*
X15670Y8704D01*
X15670Y8704D01*
X15671Y8706D01*
X15672Y8710D01*
X15673Y8714D01*
X15674Y8719D01*
X15675Y8726D01*
X15676Y8734D01*
X15676Y8743D01*
X15677Y8758D01*
D02*
G37*
G36*
X15328D02*
X15328D01*
X15327Y8757D01*
X15326Y8757D01*
X15324Y8756D01*
X15322Y8755D01*
X15319Y8754D01*
X15316Y8754D01*
X15312Y8753D01*
X15308Y8751D01*
X15303Y8750D01*
X15298Y8749D01*
X15292Y8748D01*
X15285Y8746D01*
X15279Y8745D01*
X15271Y8744D01*
X15263Y8742D01*
X15262D01*
X15260Y8742D01*
X15255Y8741D01*
X15250Y8740D01*
X15244Y8739D01*
X15239Y8738D01*
X15234Y8736D01*
X15229Y8735D01*
X15229D01*
X15227Y8734D01*
X15225Y8733D01*
X15224Y8731D01*
X15218Y8728D01*
X15213Y8722D01*
Y8722D01*
X15212Y8721D01*
X15212Y8719D01*
X15211Y8717D01*
X15210Y8714D01*
X15209Y8711D01*
X15209Y8707D01*
X15208Y8704D01*
Y8703D01*
Y8701D01*
X15209Y8698D01*
X15210Y8694D01*
X15211Y8690D01*
X15213Y8686D01*
X15216Y8681D01*
X15220Y8677D01*
X15220Y8677D01*
X15222Y8676D01*
X15225Y8674D01*
X15229Y8672D01*
X15234Y8670D01*
X15240Y8668D01*
X15247Y8667D01*
X15255Y8667D01*
X15259D01*
X15263Y8667D01*
X15268Y8668D01*
X15275Y8669D01*
X15281Y8671D01*
X15288Y8673D01*
X15295Y8677D01*
X15296Y8677D01*
X15298Y8679D01*
X15301Y8681D01*
X15305Y8684D01*
X15309Y8688D01*
X15314Y8692D01*
X15317Y8698D01*
X15321Y8704D01*
X15322Y8704D01*
X15322Y8706D01*
X15323Y8710D01*
X15324Y8714D01*
X15326Y8719D01*
X15327Y8726D01*
X15327Y8734D01*
X15328Y8743D01*
X15328Y8758D01*
D02*
G37*
G36*
X14622Y8928D02*
Y8928D01*
X14622Y8927D01*
Y8925D01*
X14621Y8923D01*
X14621Y8920D01*
X14620Y8916D01*
X14618Y8909D01*
X14615Y8899D01*
X14612Y8889D01*
X14609Y8878D01*
X14605Y8866D01*
X14570Y8773D01*
X14678D01*
X14645Y8861D01*
Y8861D01*
X14645Y8863D01*
X14644Y8865D01*
X14643Y8868D01*
X14641Y8871D01*
X14640Y8875D01*
X14639Y8880D01*
X14637Y8885D01*
X14633Y8895D01*
X14629Y8906D01*
X14626Y8917D01*
X14622Y8928D01*
D02*
G37*
G36*
X15897Y9436D02*
Y9436D01*
X15896Y9435D01*
Y9433D01*
X15895Y9431D01*
X15895Y9428D01*
X15894Y9425D01*
X15892Y9417D01*
X15890Y9408D01*
X15886Y9398D01*
X15883Y9387D01*
X15879Y9375D01*
X15844Y9281D01*
X15953D01*
X15919Y9369D01*
Y9370D01*
X15919Y9371D01*
X15918Y9374D01*
X15917Y9376D01*
X15916Y9380D01*
X15914Y9384D01*
X15913Y9388D01*
X15911Y9393D01*
X15907Y9404D01*
X15904Y9415D01*
X15900Y9426D01*
X15897Y9436D01*
D02*
G37*
G36*
X15608Y9434D02*
X15507D01*
Y9328D01*
X15603D01*
X15608Y9329D01*
X15615Y9329D01*
X15622Y9330D01*
X15630Y9331D01*
X15637Y9332D01*
X15643Y9334D01*
X15644Y9334D01*
X15646Y9335D01*
X15649Y9337D01*
X15653Y9338D01*
X15657Y9341D01*
X15661Y9344D01*
X15665Y9349D01*
X15668Y9353D01*
X15669Y9354D01*
X15670Y9355D01*
X15671Y9358D01*
X15673Y9362D01*
X15674Y9366D01*
X15676Y9371D01*
X15677Y9376D01*
X15677Y9382D01*
Y9382D01*
Y9383D01*
X15677Y9386D01*
X15676Y9390D01*
X15675Y9395D01*
X15673Y9401D01*
X15670Y9407D01*
X15666Y9413D01*
X15661Y9419D01*
X15660Y9420D01*
X15657Y9422D01*
X15654Y9424D01*
X15648Y9427D01*
X15641Y9430D01*
X15631Y9432D01*
X15621Y9434D01*
X15608Y9434D01*
D02*
G37*
G36*
X15275Y9436D02*
Y9436D01*
X15275Y9435D01*
Y9433D01*
X15274Y9431D01*
X15273Y9428D01*
X15272Y9425D01*
X15270Y9417D01*
X15268Y9408D01*
X15265Y9398D01*
X15262Y9387D01*
X15257Y9375D01*
X15223Y9281D01*
X15331D01*
X15298Y9369D01*
Y9370D01*
X15297Y9371D01*
X15296Y9374D01*
X15295Y9376D01*
X15294Y9380D01*
X15293Y9384D01*
X15291Y9388D01*
X15289Y9393D01*
X15286Y9404D01*
X15282Y9415D01*
X15278Y9426D01*
X15275Y9436D01*
D02*
G37*
G36*
X14380D02*
Y9436D01*
X14379Y9435D01*
Y9433D01*
X14378Y9431D01*
X14378Y9428D01*
X14377Y9425D01*
X14375Y9417D01*
X14373Y9408D01*
X14369Y9398D01*
X14366Y9387D01*
X14362Y9375D01*
X14327Y9281D01*
X14436D01*
X14402Y9369D01*
Y9370D01*
X14402Y9371D01*
X14401Y9374D01*
X14400Y9376D01*
X14399Y9380D01*
X14397Y9384D01*
X14396Y9388D01*
X14394Y9393D01*
X14390Y9404D01*
X14387Y9415D01*
X14383Y9426D01*
X14380Y9436D01*
D02*
G37*
G36*
X14088Y9432D02*
X14013D01*
Y9336D01*
X14091D01*
X14097Y9336D01*
X14104Y9337D01*
X14110Y9337D01*
X14117Y9338D01*
X14122Y9339D01*
X14123Y9339D01*
X14125Y9340D01*
X14127Y9341D01*
X14131Y9343D01*
X14135Y9345D01*
X14139Y9348D01*
X14143Y9351D01*
X14146Y9355D01*
X14147Y9355D01*
X14148Y9357D01*
X14149Y9360D01*
X14150Y9363D01*
X14152Y9367D01*
X14153Y9371D01*
X14154Y9377D01*
X14155Y9383D01*
Y9384D01*
Y9386D01*
X14154Y9388D01*
X14154Y9392D01*
X14153Y9397D01*
X14151Y9401D01*
X14150Y9406D01*
X14147Y9411D01*
X14146Y9411D01*
X14145Y9412D01*
X14144Y9415D01*
X14141Y9417D01*
X14138Y9420D01*
X14134Y9423D01*
X14130Y9425D01*
X14125Y9427D01*
X14124D01*
X14122Y9428D01*
X14119Y9429D01*
X14113Y9430D01*
X14107Y9430D01*
X14099Y9431D01*
X14088Y9432D01*
D02*
G37*
G36*
X14097Y9298D02*
X14013D01*
Y9188D01*
X14104D01*
X14113Y9188D01*
X14118Y9188D01*
X14121Y9189D01*
X14122D01*
X14124Y9189D01*
X14126Y9190D01*
X14130Y9191D01*
X14138Y9194D01*
X14145Y9197D01*
X14146Y9198D01*
X14147Y9199D01*
X14149Y9200D01*
X14151Y9202D01*
X14154Y9205D01*
X14157Y9207D01*
X14159Y9211D01*
X14162Y9215D01*
X14163Y9216D01*
X14163Y9217D01*
X14164Y9220D01*
X14165Y9223D01*
X14167Y9227D01*
X14168Y9231D01*
X14168Y9237D01*
X14169Y9243D01*
Y9243D01*
Y9245D01*
X14168Y9249D01*
X14167Y9253D01*
X14166Y9258D01*
X14164Y9263D01*
X14162Y9268D01*
X14159Y9273D01*
X14158Y9274D01*
X14157Y9275D01*
X14155Y9278D01*
X14152Y9281D01*
X14149Y9284D01*
X14144Y9287D01*
X14139Y9290D01*
X14133Y9292D01*
X14132Y9293D01*
X14130Y9293D01*
X14126Y9294D01*
X14121Y9295D01*
X14114Y9296D01*
X14107Y9297D01*
X14097Y9298D01*
D02*
G37*
G36*
X15174Y9774D02*
X15174D01*
X15173Y9773D01*
X15172Y9773D01*
X15170Y9772D01*
X15167Y9771D01*
X15165Y9770D01*
X15161Y9770D01*
X15158Y9769D01*
X15154Y9767D01*
X15149Y9766D01*
X15143Y9765D01*
X15137Y9764D01*
X15131Y9762D01*
X15124Y9761D01*
X15117Y9760D01*
X15109Y9758D01*
X15108D01*
X15105Y9758D01*
X15101Y9757D01*
X15096Y9756D01*
X15090Y9755D01*
X15085Y9754D01*
X15080Y9752D01*
X15075Y9751D01*
X15074D01*
X15073Y9750D01*
X15071Y9749D01*
X15069Y9747D01*
X15064Y9744D01*
X15059Y9738D01*
Y9738D01*
X15058Y9737D01*
X15058Y9735D01*
X15057Y9733D01*
X15056Y9730D01*
X15055Y9727D01*
X15055Y9723D01*
X15054Y9720D01*
Y9719D01*
Y9717D01*
X15055Y9714D01*
X15055Y9710D01*
X15057Y9706D01*
X15059Y9702D01*
X15062Y9697D01*
X15066Y9693D01*
X15066Y9693D01*
X15068Y9692D01*
X15071Y9690D01*
X15074Y9688D01*
X15080Y9686D01*
X15086Y9684D01*
X15093Y9683D01*
X15101Y9683D01*
X15105D01*
X15109Y9683D01*
X15114Y9684D01*
X15121Y9685D01*
X15127Y9687D01*
X15134Y9689D01*
X15141Y9693D01*
X15142Y9693D01*
X15144Y9695D01*
X15147Y9697D01*
X15151Y9700D01*
X15155Y9704D01*
X15160Y9708D01*
X15163Y9714D01*
X15167Y9720D01*
X15167Y9720D01*
X15168Y9722D01*
X15169Y9726D01*
X15170Y9730D01*
X15172Y9735D01*
X15173Y9742D01*
X15173Y9750D01*
X15174Y9759D01*
X15174Y9774D01*
D02*
G37*
G36*
X14866Y9939D02*
X14775D01*
Y9825D01*
X14861D01*
X14864Y9826D01*
X14867D01*
X14871Y9826D01*
X14880Y9827D01*
X14889Y9829D01*
X14899Y9832D01*
X14908Y9835D01*
X14912Y9838D01*
X14915Y9840D01*
X14916Y9841D01*
X14918Y9843D01*
X14921Y9847D01*
X14924Y9851D01*
X14927Y9857D01*
X14930Y9865D01*
X14932Y9873D01*
X14933Y9883D01*
Y9883D01*
Y9884D01*
Y9886D01*
X14932Y9890D01*
X14931Y9895D01*
X14931Y9900D01*
X14929Y9906D01*
X14926Y9912D01*
X14923Y9917D01*
X14922Y9918D01*
X14921Y9919D01*
X14919Y9922D01*
X14916Y9925D01*
X14912Y9928D01*
X14907Y9931D01*
X14902Y9934D01*
X14896Y9936D01*
X14895D01*
X14894Y9937D01*
X14891Y9937D01*
X14887Y9938D01*
X14881Y9938D01*
X14875Y9939D01*
X14866Y9939D01*
D02*
G37*
G36*
X15308Y5375D02*
X15305D01*
X15303Y5374D01*
X15298Y5373D01*
X15292Y5372D01*
X15285Y5369D01*
X15278Y5365D01*
X15274Y5362D01*
X15271Y5360D01*
X15267Y5356D01*
X15264Y5352D01*
Y5351D01*
X15263Y5350D01*
X15262Y5348D01*
X15261Y5346D01*
X15259Y5342D01*
X15258Y5338D01*
X15256Y5333D01*
X15254Y5327D01*
X15252Y5320D01*
X15251Y5312D01*
X15249Y5304D01*
X15247Y5294D01*
X15246Y5283D01*
X15245Y5271D01*
X15245Y5258D01*
X15244Y5243D01*
Y5242D01*
Y5240D01*
Y5236D01*
X15245Y5230D01*
Y5224D01*
X15245Y5217D01*
X15246Y5209D01*
X15246Y5201D01*
X15249Y5183D01*
X15250Y5174D01*
X15252Y5166D01*
X15254Y5158D01*
X15257Y5150D01*
X15259Y5144D01*
X15263Y5138D01*
Y5138D01*
X15264Y5137D01*
X15266Y5134D01*
X15270Y5130D01*
X15275Y5125D01*
X15282Y5121D01*
X15290Y5117D01*
X15299Y5113D01*
X15303Y5113D01*
X15308Y5112D01*
X15311D01*
X15313Y5113D01*
X15318Y5114D01*
X15324Y5116D01*
X15331Y5119D01*
X15339Y5124D01*
X15343Y5126D01*
X15346Y5130D01*
X15350Y5134D01*
X15354Y5138D01*
Y5139D01*
X15355Y5140D01*
X15356Y5141D01*
X15357Y5143D01*
X15358Y5147D01*
X15360Y5151D01*
X15362Y5155D01*
X15364Y5161D01*
X15365Y5168D01*
X15367Y5175D01*
X15369Y5184D01*
X15370Y5193D01*
X15371Y5204D01*
X15372Y5216D01*
X15373Y5229D01*
Y5243D01*
Y5244D01*
Y5244D01*
Y5247D01*
Y5251D01*
X15372Y5256D01*
Y5262D01*
X15372Y5270D01*
X15371Y5278D01*
X15370Y5286D01*
X15368Y5304D01*
X15367Y5313D01*
X15365Y5321D01*
X15363Y5329D01*
X15360Y5336D01*
X15358Y5343D01*
X15354Y5348D01*
Y5349D01*
X15353Y5349D01*
X15352Y5351D01*
X15351Y5353D01*
X15347Y5357D01*
X15342Y5362D01*
X15335Y5366D01*
X15327Y5371D01*
X15323Y5372D01*
X15318Y5374D01*
X15313Y5374D01*
X15308Y5375D01*
D02*
G37*
G36*
X15059D02*
X15056D01*
X15054Y5374D01*
X15049Y5373D01*
X15043Y5372D01*
X15036Y5369D01*
X15029Y5365D01*
X15025Y5362D01*
X15022Y5360D01*
X15018Y5356D01*
X15015Y5352D01*
Y5351D01*
X15014Y5350D01*
X15013Y5348D01*
X15012Y5346D01*
X15010Y5342D01*
X15009Y5338D01*
X15007Y5333D01*
X15005Y5327D01*
X15003Y5320D01*
X15002Y5312D01*
X15000Y5304D01*
X14998Y5294D01*
X14997Y5283D01*
X14996Y5271D01*
X14996Y5258D01*
X14995Y5243D01*
Y5242D01*
Y5240D01*
Y5236D01*
X14996Y5230D01*
Y5224D01*
X14996Y5217D01*
X14997Y5209D01*
X14997Y5201D01*
X15000Y5183D01*
X15001Y5174D01*
X15003Y5166D01*
X15005Y5158D01*
X15008Y5150D01*
X15010Y5144D01*
X15014Y5138D01*
Y5138D01*
X15015Y5137D01*
X15017Y5134D01*
X15021Y5130D01*
X15026Y5125D01*
X15033Y5121D01*
X15041Y5117D01*
X15050Y5113D01*
X15054Y5113D01*
X15059Y5112D01*
X15062D01*
X15064Y5113D01*
X15069Y5114D01*
X15075Y5116D01*
X15082Y5119D01*
X15090Y5124D01*
X15094Y5126D01*
X15097Y5130D01*
X15101Y5134D01*
X15105Y5138D01*
Y5139D01*
X15106Y5140D01*
X15107Y5141D01*
X15108Y5143D01*
X15109Y5147D01*
X15111Y5151D01*
X15113Y5155D01*
X15115Y5161D01*
X15116Y5168D01*
X15118Y5175D01*
X15120Y5184D01*
X15121Y5193D01*
X15122Y5204D01*
X15123Y5216D01*
X15124Y5229D01*
Y5243D01*
Y5244D01*
Y5244D01*
Y5247D01*
Y5251D01*
X15123Y5256D01*
Y5262D01*
X15123Y5270D01*
X15122Y5278D01*
X15121Y5286D01*
X15119Y5304D01*
X15118Y5313D01*
X15116Y5321D01*
X15114Y5329D01*
X15111Y5336D01*
X15109Y5343D01*
X15105Y5348D01*
Y5349D01*
X15104Y5349D01*
X15103Y5351D01*
X15102Y5353D01*
X15098Y5357D01*
X15093Y5362D01*
X15086Y5366D01*
X15078Y5371D01*
X15074Y5372D01*
X15069Y5374D01*
X15064Y5374D01*
X15059Y5375D01*
D02*
G37*
G36*
X15767Y5710D02*
X15766D01*
X15766Y5710D01*
X15764Y5709D01*
X15763Y5709D01*
X15760Y5708D01*
X15757Y5707D01*
X15754Y5706D01*
X15751Y5705D01*
X15746Y5704D01*
X15741Y5703D01*
X15736Y5701D01*
X15730Y5700D01*
X15724Y5699D01*
X15717Y5697D01*
X15710Y5696D01*
X15702Y5695D01*
X15701D01*
X15698Y5694D01*
X15694Y5694D01*
X15689Y5693D01*
X15683Y5692D01*
X15677Y5690D01*
X15672Y5689D01*
X15668Y5687D01*
X15667D01*
X15666Y5686D01*
X15664Y5685D01*
X15662Y5684D01*
X15657Y5680D01*
X15652Y5675D01*
Y5674D01*
X15651Y5673D01*
X15651Y5671D01*
X15650Y5669D01*
X15649Y5666D01*
X15648Y5663D01*
X15647Y5660D01*
X15647Y5656D01*
Y5656D01*
Y5653D01*
X15647Y5650D01*
X15648Y5647D01*
X15650Y5643D01*
X15652Y5638D01*
X15655Y5634D01*
X15658Y5630D01*
X15659Y5629D01*
X15661Y5628D01*
X15664Y5626D01*
X15667Y5625D01*
X15672Y5623D01*
X15678Y5621D01*
X15685Y5620D01*
X15694Y5619D01*
X15697D01*
X15702Y5620D01*
X15707Y5621D01*
X15714Y5622D01*
X15720Y5624D01*
X15727Y5626D01*
X15734Y5629D01*
X15735Y5630D01*
X15737Y5631D01*
X15740Y5633D01*
X15744Y5637D01*
X15748Y5640D01*
X15752Y5645D01*
X15756Y5650D01*
X15760Y5656D01*
X15760Y5657D01*
X15761Y5659D01*
X15762Y5662D01*
X15763Y5666D01*
X15764Y5672D01*
X15765Y5678D01*
X15766Y5686D01*
X15766Y5695D01*
X15767Y5710D01*
D02*
G37*
G36*
X14597D02*
X14597D01*
X14596Y5710D01*
X14595Y5709D01*
X14593Y5709D01*
X14591Y5708D01*
X14588Y5707D01*
X14585Y5706D01*
X14581Y5705D01*
X14577Y5704D01*
X14572Y5703D01*
X14567Y5701D01*
X14561Y5700D01*
X14554Y5699D01*
X14548Y5697D01*
X14540Y5696D01*
X14532Y5695D01*
X14532D01*
X14529Y5694D01*
X14524Y5694D01*
X14519Y5693D01*
X14514Y5692D01*
X14508Y5690D01*
X14503Y5689D01*
X14498Y5687D01*
X14498D01*
X14496Y5686D01*
X14495Y5685D01*
X14493Y5684D01*
X14487Y5680D01*
X14483Y5675D01*
Y5674D01*
X14482Y5673D01*
X14481Y5671D01*
X14480Y5669D01*
X14479Y5666D01*
X14478Y5663D01*
X14478Y5660D01*
X14477Y5656D01*
Y5656D01*
Y5653D01*
X14478Y5650D01*
X14479Y5647D01*
X14480Y5643D01*
X14483Y5638D01*
X14485Y5634D01*
X14489Y5630D01*
X14489Y5629D01*
X14491Y5628D01*
X14494Y5626D01*
X14498Y5625D01*
X14503Y5623D01*
X14509Y5621D01*
X14516Y5620D01*
X14524Y5619D01*
X14528D01*
X14532Y5620D01*
X14538Y5621D01*
X14544Y5622D01*
X14551Y5624D01*
X14557Y5626D01*
X14564Y5629D01*
X14565Y5630D01*
X14567Y5631D01*
X14570Y5633D01*
X14574Y5637D01*
X14578Y5640D01*
X14583Y5645D01*
X14587Y5650D01*
X14590Y5656D01*
X14591Y5657D01*
X14591Y5659D01*
X14592Y5662D01*
X14594Y5666D01*
X14595Y5672D01*
X14596Y5678D01*
X14596Y5686D01*
X14597Y5695D01*
X14597Y5710D01*
D02*
G37*
G36*
X14290Y5876D02*
X14198D01*
Y5762D01*
X14284D01*
X14287Y5762D01*
X14290D01*
X14294Y5762D01*
X14303Y5763D01*
X14313Y5765D01*
X14322Y5768D01*
X14331Y5772D01*
X14335Y5774D01*
X14339Y5777D01*
X14340Y5778D01*
X14341Y5780D01*
X14344Y5783D01*
X14347Y5788D01*
X14351Y5794D01*
X14353Y5801D01*
X14355Y5810D01*
X14356Y5819D01*
Y5820D01*
Y5820D01*
Y5823D01*
X14356Y5827D01*
X14355Y5831D01*
X14354Y5837D01*
X14352Y5843D01*
X14349Y5848D01*
X14346Y5854D01*
X14346Y5854D01*
X14344Y5856D01*
X14342Y5858D01*
X14339Y5862D01*
X14335Y5865D01*
X14330Y5868D01*
X14325Y5870D01*
X14319Y5873D01*
X14319D01*
X14317Y5873D01*
X14314Y5874D01*
X14310Y5874D01*
X14305Y5875D01*
X14298Y5875D01*
X14290Y5876D01*
D02*
G37*
G36*
X13548Y5799D02*
X13545D01*
X13543Y5798D01*
X13538Y5798D01*
X13531Y5796D01*
X13523Y5793D01*
X13514Y5789D01*
X13506Y5784D01*
X13502Y5780D01*
X13499Y5776D01*
Y5776D01*
X13498Y5775D01*
X13497Y5774D01*
X13495Y5772D01*
X13494Y5770D01*
X13493Y5767D01*
X13491Y5763D01*
X13489Y5760D01*
X13487Y5755D01*
X13485Y5750D01*
X13484Y5745D01*
X13482Y5739D01*
X13481Y5732D01*
X13480Y5725D01*
X13480Y5718D01*
X13479Y5710D01*
Y5709D01*
Y5708D01*
Y5706D01*
X13480Y5702D01*
Y5699D01*
X13480Y5694D01*
X13482Y5685D01*
X13484Y5674D01*
X13488Y5663D01*
X13492Y5652D01*
X13495Y5647D01*
X13499Y5643D01*
X13499D01*
X13500Y5642D01*
X13502Y5639D01*
X13506Y5636D01*
X13512Y5632D01*
X13519Y5628D01*
X13527Y5624D01*
X13537Y5622D01*
X13542Y5621D01*
X13548Y5621D01*
X13550D01*
X13553Y5621D01*
X13558Y5622D01*
X13565Y5624D01*
X13572Y5626D01*
X13581Y5630D01*
X13588Y5636D01*
X13593Y5639D01*
X13596Y5643D01*
X13597Y5644D01*
X13597Y5644D01*
X13598Y5645D01*
X13600Y5647D01*
X13601Y5650D01*
X13603Y5652D01*
X13605Y5656D01*
X13606Y5660D01*
X13608Y5664D01*
X13610Y5669D01*
X13612Y5675D01*
X13613Y5681D01*
X13614Y5688D01*
X13615Y5695D01*
X13616Y5703D01*
Y5711D01*
Y5712D01*
Y5713D01*
Y5715D01*
X13616Y5718D01*
Y5722D01*
X13615Y5726D01*
X13614Y5736D01*
X13612Y5746D01*
X13608Y5757D01*
X13603Y5767D01*
X13600Y5772D01*
X13596Y5776D01*
Y5777D01*
X13595Y5777D01*
X13593Y5780D01*
X13588Y5783D01*
X13583Y5787D01*
X13576Y5792D01*
X13568Y5795D01*
X13558Y5798D01*
X13553Y5798D01*
X13548Y5799D01*
D02*
G37*
G36*
X7905Y5268D02*
X7904D01*
X7902Y5268D01*
X7898Y5267D01*
X7893Y5266D01*
X7887Y5264D01*
X7882Y5260D01*
X7876Y5256D01*
X7871Y5249D01*
X7871Y5248D01*
X7869Y5246D01*
X7867Y5242D01*
X7865Y5235D01*
X7863Y5228D01*
X7861Y5218D01*
X7860Y5206D01*
X7859Y5193D01*
Y5192D01*
Y5190D01*
X7860Y5186D01*
X7860Y5182D01*
X7860Y5176D01*
X7861Y5170D01*
X7863Y5163D01*
X7865Y5157D01*
X7867Y5150D01*
X7870Y5143D01*
X7874Y5137D01*
X7878Y5132D01*
X7884Y5127D01*
X7890Y5124D01*
X7897Y5121D01*
X7905Y5120D01*
X7906D01*
X7908Y5121D01*
X7911Y5121D01*
X7916Y5122D01*
X7921Y5124D01*
X7926Y5127D01*
X7931Y5131D01*
X7937Y5136D01*
X7937Y5137D01*
X7939Y5139D01*
X7941Y5142D01*
X7944Y5147D01*
X7947Y5153D01*
X7948Y5160D01*
X7950Y5167D01*
X7951Y5176D01*
Y5213D01*
Y5213D01*
Y5214D01*
Y5215D01*
Y5217D01*
X7950Y5222D01*
X7949Y5228D01*
X7947Y5235D01*
X7946Y5241D01*
X7942Y5248D01*
X7938Y5254D01*
X7938Y5254D01*
X7936Y5256D01*
X7933Y5258D01*
X7929Y5261D01*
X7925Y5264D01*
X7919Y5266D01*
X7913Y5268D01*
X7905Y5268D01*
D02*
G37*
G36*
X6813Y5329D02*
X6729Y5196D01*
X6809D01*
Y5277D01*
Y5278D01*
Y5279D01*
Y5282D01*
Y5285D01*
X6809Y5289D01*
Y5292D01*
X6810Y5301D01*
X6813Y5329D01*
D02*
G37*
G36*
X4466Y5336D02*
X4402D01*
Y5255D01*
X4470D01*
X4474Y5255D01*
X4478Y5256D01*
X4483Y5258D01*
X4489Y5260D01*
X4494Y5263D01*
X4498Y5267D01*
X4499Y5267D01*
X4500Y5269D01*
X4502Y5271D01*
X4504Y5275D01*
X4506Y5279D01*
X4508Y5284D01*
X4509Y5290D01*
X4510Y5297D01*
Y5297D01*
Y5298D01*
Y5300D01*
X4509Y5304D01*
X4508Y5308D01*
X4507Y5313D01*
X4504Y5318D01*
X4501Y5323D01*
X4496Y5326D01*
X4496Y5327D01*
X4494Y5328D01*
X4491Y5329D01*
X4488Y5331D01*
X4483Y5333D01*
X4478Y5335D01*
X4472Y5335D01*
X4466Y5336D01*
D02*
G37*
G36*
X4471Y5213D02*
X4402D01*
Y5129D01*
X4474D01*
X4478Y5129D01*
X4483Y5130D01*
X4489Y5131D01*
X4494Y5133D01*
X4500Y5136D01*
X4505Y5140D01*
X4505Y5140D01*
X4507Y5142D01*
X4509Y5144D01*
X4511Y5148D01*
X4514Y5152D01*
X4516Y5158D01*
X4517Y5164D01*
X4518Y5171D01*
Y5172D01*
Y5174D01*
X4517Y5177D01*
X4516Y5181D01*
X4514Y5186D01*
X4512Y5191D01*
X4509Y5196D01*
X4505Y5201D01*
X4504Y5201D01*
X4502Y5203D01*
X4500Y5204D01*
X4496Y5207D01*
X4491Y5209D01*
X4485Y5211D01*
X4478Y5212D01*
X4471Y5213D01*
D02*
G37*
G36*
X8146Y5272D02*
X8142D01*
X8139Y5271D01*
X8133Y5270D01*
X8128Y5268D01*
X8122Y5266D01*
X8117Y5262D01*
X8111Y5258D01*
X8111Y5257D01*
X8109Y5255D01*
X8107Y5252D01*
X8104Y5248D01*
X8102Y5242D01*
X8099Y5235D01*
X8097Y5228D01*
X8096Y5219D01*
X8194D01*
Y5219D01*
Y5220D01*
Y5223D01*
X8193Y5227D01*
X8192Y5232D01*
X8190Y5238D01*
X8188Y5245D01*
X8184Y5251D01*
X8180Y5257D01*
X8179Y5257D01*
X8177Y5259D01*
X8174Y5261D01*
X8171Y5264D01*
X8165Y5267D01*
X8159Y5269D01*
X8153Y5271D01*
X8146Y5272D01*
D02*
G37*
G36*
X7530Y5266D02*
X7528D01*
X7526Y5266D01*
X7521Y5265D01*
X7516Y5264D01*
X7510Y5261D01*
X7503Y5258D01*
X7497Y5253D01*
X7494Y5250D01*
X7492Y5246D01*
X7492Y5245D01*
X7490Y5242D01*
X7488Y5238D01*
X7486Y5232D01*
X7484Y5224D01*
X7482Y5216D01*
X7481Y5205D01*
X7480Y5193D01*
Y5193D01*
Y5192D01*
Y5190D01*
Y5187D01*
X7481Y5185D01*
X7481Y5181D01*
X7482Y5173D01*
X7483Y5164D01*
X7486Y5155D01*
X7489Y5147D01*
X7493Y5139D01*
X7493Y5138D01*
X7495Y5136D01*
X7499Y5133D01*
X7503Y5130D01*
X7508Y5126D01*
X7514Y5123D01*
X7521Y5121D01*
X7529Y5120D01*
X7531D01*
X7534Y5121D01*
X7537Y5122D01*
X7541Y5123D01*
X7545Y5124D01*
X7549Y5126D01*
X7554Y5130D01*
X7558Y5134D01*
X7562Y5138D01*
X7567Y5144D01*
X7570Y5152D01*
X7574Y5160D01*
X7576Y5170D01*
X7578Y5181D01*
X7578Y5194D01*
Y5195D01*
Y5196D01*
Y5198D01*
Y5200D01*
X7578Y5203D01*
Y5206D01*
X7577Y5213D01*
X7575Y5222D01*
X7573Y5230D01*
X7570Y5239D01*
X7566Y5247D01*
X7566Y5248D01*
X7564Y5250D01*
X7561Y5253D01*
X7557Y5256D01*
X7552Y5260D01*
X7546Y5263D01*
X7539Y5265D01*
X7530Y5266D01*
D02*
G37*
G36*
X5911D02*
X5908D01*
X5907Y5266D01*
X5902Y5265D01*
X5896Y5264D01*
X5890Y5261D01*
X5884Y5258D01*
X5878Y5253D01*
X5875Y5250D01*
X5873Y5246D01*
X5872Y5245D01*
X5871Y5242D01*
X5869Y5238D01*
X5867Y5232D01*
X5864Y5224D01*
X5863Y5216D01*
X5861Y5205D01*
X5861Y5193D01*
Y5193D01*
Y5192D01*
Y5190D01*
Y5187D01*
X5861Y5185D01*
X5862Y5181D01*
X5863Y5173D01*
X5864Y5164D01*
X5866Y5155D01*
X5870Y5147D01*
X5874Y5139D01*
X5874Y5138D01*
X5876Y5136D01*
X5879Y5133D01*
X5883Y5130D01*
X5889Y5126D01*
X5895Y5123D01*
X5902Y5121D01*
X5910Y5120D01*
X5912D01*
X5914Y5121D01*
X5918Y5122D01*
X5921Y5123D01*
X5926Y5124D01*
X5930Y5126D01*
X5934Y5130D01*
X5939Y5134D01*
X5943Y5138D01*
X5947Y5144D01*
X5951Y5152D01*
X5954Y5160D01*
X5957Y5170D01*
X5958Y5181D01*
X5959Y5194D01*
Y5195D01*
Y5196D01*
Y5198D01*
Y5200D01*
X5958Y5203D01*
Y5206D01*
X5957Y5213D01*
X5956Y5222D01*
X5954Y5230D01*
X5951Y5239D01*
X5947Y5247D01*
X5946Y5248D01*
X5945Y5250D01*
X5942Y5253D01*
X5938Y5256D01*
X5933Y5260D01*
X5927Y5263D01*
X5920Y5265D01*
X5911Y5266D01*
D02*
G37*
G36*
X5226Y5272D02*
X5223D01*
X5219Y5271D01*
X5214Y5270D01*
X5209Y5268D01*
X5203Y5266D01*
X5197Y5262D01*
X5192Y5258D01*
X5191Y5257D01*
X5189Y5255D01*
X5187Y5252D01*
X5185Y5248D01*
X5182Y5242D01*
X5179Y5235D01*
X5177Y5228D01*
X5176Y5219D01*
X5274D01*
Y5219D01*
Y5220D01*
Y5223D01*
X5273Y5227D01*
X5272Y5232D01*
X5271Y5238D01*
X5268Y5245D01*
X5265Y5251D01*
X5260Y5257D01*
X5260Y5257D01*
X5258Y5259D01*
X5254Y5261D01*
X5251Y5264D01*
X5246Y5267D01*
X5240Y5269D01*
X5233Y5271D01*
X5226Y5272D01*
D02*
G37*
G36*
X4095D02*
X4092D01*
X4088Y5271D01*
X4083Y5270D01*
X4078Y5268D01*
X4072Y5266D01*
X4067Y5262D01*
X4061Y5258D01*
X4060Y5257D01*
X4059Y5255D01*
X4057Y5252D01*
X4054Y5248D01*
X4051Y5242D01*
X4048Y5235D01*
X4047Y5228D01*
X4045Y5219D01*
X4143D01*
Y5219D01*
Y5220D01*
Y5223D01*
X4142Y5227D01*
X4141Y5232D01*
X4140Y5238D01*
X4137Y5245D01*
X4134Y5251D01*
X4129Y5257D01*
X4129Y5257D01*
X4127Y5259D01*
X4124Y5261D01*
X4120Y5264D01*
X4115Y5267D01*
X4109Y5269D01*
X4103Y5271D01*
X4095Y5272D01*
D02*
G37*
%LPD*%
D10*
X1586Y7245D02*
G03*
X1586Y7245I-100J0D01*
G01*
X19244Y7110D02*
G03*
X19244Y7110I-100J0D01*
G01*
X2266Y7870D02*
X2366Y6620D01*
Y7870D02*
X2466Y6620D01*
Y7870D02*
X2566Y6620D01*
Y7870D02*
X2666Y6620D01*
Y7870D02*
X2766Y6620D01*
Y7870D02*
X2866Y6620D01*
Y7870D02*
X2966Y6620D01*
Y7870D02*
X3066Y6620D01*
X3276Y6655D02*
Y7835D01*
X18264Y7735D02*
X18364Y6485D01*
X18164Y7735D02*
X18264Y6485D01*
X18064Y7735D02*
X18164Y6485D01*
X17964Y7735D02*
X18064Y6485D01*
X17864Y7735D02*
X17964Y6485D01*
X17764Y7735D02*
X17864Y6485D01*
X17664Y7735D02*
X17764Y6485D01*
X17564Y7735D02*
X17664Y6485D01*
X17354Y6520D02*
Y7700D01*
D11*
X8826Y7662D02*
G03*
X8954Y7662I63J0D01*
G01*
X13145Y7408D02*
G03*
X13271Y7408I63J0D01*
G01*
X4566Y6505D02*
Y7985D01*
X3156Y6505D02*
X4566D01*
X3156D02*
Y6620D01*
X2266D02*
X3156D01*
X2266D02*
Y6765D01*
X1076D02*
X2266D01*
X1076D02*
Y7725D01*
X2266D01*
Y7870D01*
X3156D01*
Y7985D01*
X4566D01*
X3156Y6620D02*
Y7870D01*
X2266Y6765D02*
Y7725D01*
X16064Y6370D02*
Y7850D01*
X17474D01*
Y7735D02*
Y7850D01*
Y7735D02*
X18364D01*
Y7590D02*
Y7735D01*
Y7590D02*
X19554D01*
Y6630D02*
Y7590D01*
X18364Y6630D02*
X19554D01*
X18364Y6485D02*
Y6630D01*
X17474Y6485D02*
X18364D01*
X17474Y6370D02*
Y6485D01*
X16064Y6370D02*
X17474D01*
Y6485D02*
Y7735D01*
X18364Y6630D02*
Y7590D01*
X10287Y9779D02*
X11049D01*
X10287Y9525D02*
Y9779D01*
Y9525D02*
X11049D01*
Y9779D01*
X8128Y9398D02*
Y9474D01*
X7620D02*
X8128D01*
X7620Y9322D02*
Y9474D01*
Y9322D02*
X8128D01*
Y9398D01*
X7597D02*
X7620D01*
X8128D02*
X8151D01*
X12446Y8890D02*
Y8966D01*
X11938D02*
X12446D01*
X11938Y8814D02*
Y8966D01*
Y8814D02*
X12446D01*
Y8890D01*
X11915D02*
X11938D01*
X12446D02*
X12469D01*
X8318Y8446D02*
Y8826D01*
X9461D01*
Y8446D02*
Y8826D01*
X8318Y8446D02*
X9461D01*
X12636Y7938D02*
Y8318D01*
X13779D01*
Y7938D02*
Y8318D01*
X12636Y7938D02*
X13779D01*
X9155Y6562D02*
Y7662D01*
X8625Y6562D02*
Y7662D01*
Y6562D02*
X9155D01*
X8954Y7662D02*
X9155D01*
X8625D02*
X8826D01*
X7624Y7245D02*
Y7321D01*
X7116D02*
X7624D01*
X7116Y7169D02*
Y7321D01*
Y7169D02*
X7624D01*
Y7245D01*
X7093D02*
X7116D01*
X7624D02*
X7647D01*
X5840D02*
Y7321D01*
X5332D02*
X5840D01*
X5332Y7169D02*
Y7321D01*
Y7169D02*
X5840D01*
Y7245D01*
X5309D02*
X5332D01*
X5840D02*
X5863D01*
X13473Y6308D02*
Y7408D01*
X12943Y6308D02*
Y7408D01*
Y6308D02*
X13473D01*
X13271Y7408D02*
X13473D01*
X12943D02*
X13145D01*
X12091Y6987D02*
Y7063D01*
X11583D02*
X12091D01*
X11583Y6910D02*
Y7063D01*
Y6910D02*
X12091D01*
Y6987D01*
X11560D02*
X11583D01*
X12091D02*
X12113D01*
X10641D02*
Y7063D01*
X10133D02*
X10641D01*
X10133Y6910D02*
Y7063D01*
Y6910D02*
X10641D01*
Y6987D01*
X10110D02*
X10133D01*
X10641D02*
X10664D01*
X10986Y6287D02*
X11367D01*
Y5144D02*
Y6287D01*
X10986Y5144D02*
X11367D01*
X10986D02*
Y6287D01*
X6414Y6668D02*
X6794D01*
Y5524D02*
Y6668D01*
X6414Y5524D02*
X6794D01*
X6414D02*
Y6668D01*
D12*
X3276Y7835D02*
X4076D01*
Y6655D02*
Y7835D01*
X3276Y6655D02*
X4076D01*
X3156Y6505D02*
Y6620D01*
Y6505D02*
X4566D01*
Y7985D01*
X3156D02*
X4566D01*
X3156Y7870D02*
Y7985D01*
X2266Y6620D02*
Y6765D01*
Y6620D02*
X3156D01*
Y7870D01*
X2266D02*
X3156D01*
X2266Y7725D02*
Y7870D01*
X1076Y7725D02*
X2266D01*
Y6765D02*
Y7725D01*
X1076Y6765D02*
X2266D01*
X1076D02*
Y7725D01*
X16554Y6520D02*
X17354D01*
X16554D02*
Y7700D01*
X17354D01*
X17474Y7735D02*
Y7850D01*
X16064D02*
X17474D01*
X16064Y6370D02*
Y7850D01*
Y6370D02*
X17474D01*
Y6485D01*
X18364Y7590D02*
Y7735D01*
X17474D02*
X18364D01*
X17474Y6485D02*
Y7735D01*
Y6485D02*
X18364D01*
Y6630D01*
X19554D01*
X18364D02*
Y7590D01*
X19554D01*
Y6630D02*
Y7590D01*
D13*
X16383Y8534D02*
X16358Y8560D01*
X16307D01*
X16281Y8534D01*
Y8509D01*
X16307Y8484D01*
X16358D01*
X16383Y8458D01*
Y8433D01*
X16358Y8407D01*
X16307D01*
X16281Y8433D01*
X16459Y8407D02*
X16510D01*
X16535Y8433D01*
Y8484D01*
X16510Y8509D01*
X16459D01*
X16434Y8484D01*
Y8433D01*
X16459Y8407D01*
X16586Y8509D02*
Y8407D01*
Y8458D01*
X16611Y8484D01*
X16637Y8509D01*
X16662D01*
X16764Y8534D02*
Y8509D01*
X16738D01*
X16789D01*
X16764D01*
Y8433D01*
X16789Y8407D01*
X16865D02*
X16916D01*
X16891D01*
Y8509D01*
X16865D01*
X17069Y8407D02*
X17018D01*
X16992Y8433D01*
Y8484D01*
X17018Y8509D01*
X17069D01*
X17094Y8484D01*
Y8458D01*
X16992D01*
X3429Y8306D02*
X3327D01*
Y8153D01*
X3429D01*
X3327Y8230D02*
X3378D01*
X3480Y8153D02*
Y8255D01*
X3556D01*
X3581Y8230D01*
Y8153D01*
X3657Y8280D02*
Y8255D01*
X3632D01*
X3683D01*
X3657D01*
Y8179D01*
X3683Y8153D01*
X3759Y8255D02*
Y8153D01*
Y8204D01*
X3784Y8230D01*
X3810Y8255D01*
X3835D01*
X3988Y8153D02*
X3937D01*
X3911Y8179D01*
Y8230D01*
X3937Y8255D01*
X3988D01*
X4013Y8230D01*
Y8204D01*
X3911D01*
X4140Y8153D02*
X4089D01*
X4064Y8179D01*
Y8230D01*
X4089Y8255D01*
X4140D01*
X4165Y8230D01*
Y8204D01*
X4064D01*
X8448Y7899D02*
Y7772D01*
X8473Y7747D01*
X8524D01*
X8550Y7772D01*
Y7899D01*
X8702Y7747D02*
X8600D01*
X8702Y7849D01*
Y7874D01*
X8677Y7899D01*
X8626D01*
X8600Y7874D01*
X12766Y7645D02*
Y7518D01*
X12791Y7493D01*
X12842D01*
X12868Y7518D01*
Y7645D01*
X12918Y7493D02*
X12969D01*
X12944D01*
Y7645D01*
X12918Y7620D01*
X6934Y7407D02*
Y7559D01*
X7010D01*
X7036Y7534D01*
Y7483D01*
X7010Y7457D01*
X6934D01*
X6985D02*
X7036Y7407D01*
X7188Y7559D02*
X7137Y7534D01*
X7087Y7483D01*
Y7432D01*
X7112Y7407D01*
X7163D01*
X7188Y7432D01*
Y7457D01*
X7163Y7483D01*
X7087D01*
X5151Y7407D02*
Y7559D01*
X5227D01*
X5253Y7534D01*
Y7483D01*
X5227Y7457D01*
X5151D01*
X5202D02*
X5253Y7407D01*
X5405Y7559D02*
X5303D01*
Y7483D01*
X5354Y7508D01*
X5380D01*
X5405Y7483D01*
Y7432D01*
X5380Y7407D01*
X5329D01*
X5303Y7432D01*
X11402Y7150D02*
Y7302D01*
X11478D01*
X11504Y7277D01*
Y7226D01*
X11478Y7201D01*
X11402D01*
X11453D02*
X11504Y7150D01*
X11631D02*
Y7302D01*
X11554Y7226D01*
X11656D01*
X9952Y7150D02*
Y7302D01*
X10028D01*
X10053Y7277D01*
Y7226D01*
X10028Y7201D01*
X9952D01*
X10003D02*
X10053Y7150D01*
X10104Y7277D02*
X10129Y7302D01*
X10180D01*
X10206Y7277D01*
Y7252D01*
X10180Y7226D01*
X10155D01*
X10180D01*
X10206Y7201D01*
Y7175D01*
X10180Y7150D01*
X10129D01*
X10104Y7175D01*
X11755Y9053D02*
Y9205D01*
X11831D01*
X11857Y9180D01*
Y9129D01*
X11831Y9103D01*
X11755D01*
X11806D02*
X11857Y9053D01*
X12009D02*
X11907D01*
X12009Y9154D01*
Y9180D01*
X11984Y9205D01*
X11933D01*
X11907Y9180D01*
X7437Y9561D02*
Y9713D01*
X7513D01*
X7539Y9688D01*
Y9637D01*
X7513Y9611D01*
X7437D01*
X7488D02*
X7539Y9561D01*
X7589D02*
X7640D01*
X7615D01*
Y9713D01*
X7589Y9688D01*
X1092Y8072D02*
Y8224D01*
X1168D01*
X1194Y8199D01*
Y8148D01*
X1168Y8123D01*
X1092D01*
X1245Y8199D02*
X1270Y8224D01*
X1321D01*
X1346Y8199D01*
Y8174D01*
X1321Y8148D01*
X1295D01*
X1321D01*
X1346Y8123D01*
Y8098D01*
X1321Y8072D01*
X1270D01*
X1245Y8098D01*
X16078Y7935D02*
Y8087D01*
X16154D01*
X16180Y8062D01*
Y8011D01*
X16154Y7986D01*
X16078D01*
X16332Y7935D02*
X16231D01*
X16332Y8037D01*
Y8062D01*
X16307Y8087D01*
X16256D01*
X16231Y8062D01*
X10302Y9865D02*
Y10018D01*
X10378D01*
X10404Y9992D01*
Y9942D01*
X10378Y9916D01*
X10302D01*
X10455Y9865D02*
X10505D01*
X10480D01*
Y10018D01*
X10455Y9992D01*
X11102Y6500D02*
X11077Y6525D01*
X11026D01*
X11001Y6500D01*
Y6398D01*
X11026Y6373D01*
X11077D01*
X11102Y6398D01*
X11229Y6373D02*
Y6525D01*
X11153Y6449D01*
X11255D01*
X6530Y6881D02*
X6505Y6906D01*
X6454D01*
X6429Y6881D01*
Y6779D01*
X6454Y6754D01*
X6505D01*
X6530Y6779D01*
X6581Y6881D02*
X6606Y6906D01*
X6657D01*
X6683Y6881D01*
Y6855D01*
X6657Y6830D01*
X6632D01*
X6657D01*
X6683Y6805D01*
Y6779D01*
X6657Y6754D01*
X6606D01*
X6581Y6779D01*
X8435Y9040D02*
X8410Y9065D01*
X8359D01*
X8334Y9040D01*
Y8938D01*
X8359Y8913D01*
X8410D01*
X8435Y8938D01*
X8588Y8913D02*
X8486D01*
X8588Y9014D01*
Y9040D01*
X8562Y9065D01*
X8511D01*
X8486Y9040D01*
X12753Y8532D02*
X12728Y8557D01*
X12677D01*
X12652Y8532D01*
Y8430D01*
X12677Y8405D01*
X12728D01*
X12753Y8430D01*
X12804Y8405D02*
X12855D01*
X12829D01*
Y8557D01*
X12804Y8532D01*
M02*
