G04*
G04 #@! TF.GenerationSoftware,Altium Limited,Altium Designer,22.7.1 (60)*
G04*
G04 Layer_Physical_Order=1*
G04 Layer_Color=255*
%FSLAX42Y42*%
%MOMM*%
G71*
G04*
G04 #@! TF.SameCoordinates,5E95509D-5024-4279-8DF4-8E0BA65E4A92*
G04*
G04*
G04 #@! TF.FilePolarity,Positive*
G04*
G01*
G75*
%ADD13C,0.25*%
%ADD21C,3.30*%
%ADD22C,1.50*%
%ADD23R,1.50X1.50*%
%ADD24C,1.40*%
%ADD25C,1.20*%
%ADD26C,1.50*%
%ADD27R,1.50X1.50*%
D13*
X13589Y7489D02*
Y8128D01*
Y7489D02*
X13968Y7110D01*
X16254D01*
X13589Y6731D02*
X13968Y7110D01*
X12177Y9652D02*
X12192Y9637D01*
Y8651D02*
Y9637D01*
X10922Y9652D02*
X12177D01*
X12207Y8636D02*
X13193D01*
X12192Y8651D02*
X12207Y8636D01*
X13193D02*
X13208Y8621D01*
Y7366D02*
Y8621D01*
Y7366D02*
X13589Y6985D01*
X12522Y6986D02*
X12826D01*
X12218D02*
X12522D01*
Y7823D02*
X12827Y8128D01*
X12522Y6986D02*
Y7823D01*
X9269Y7241D02*
X9271Y7239D01*
X8890Y7226D02*
X8905Y7241D01*
X8890Y6111D02*
Y7226D01*
X8905Y7241D02*
X9269D01*
X8890Y6111D02*
X8905Y6096D01*
X10160D01*
X10414Y6350D01*
Y8890D01*
X10922Y9398D02*
Y9652D01*
X10414Y8890D02*
X10922Y9398D01*
X9391Y8643D02*
X9398Y8651D01*
X9383Y8636D02*
X9391Y8643D01*
X9272Y6986D02*
X10005D01*
X9390Y6986D02*
X9391Y6986D01*
Y8643D01*
X11178Y8875D02*
X11193Y8890D01*
X11811D01*
X11178Y6987D02*
Y8875D01*
Y6987D02*
X11456D01*
X10768D02*
X11178D01*
X11176Y6984D02*
X11178Y6987D01*
X11176Y6096D02*
Y6984D01*
X12826Y6986D02*
X12827Y6985D01*
X12218Y6987D02*
X12218Y6986D01*
X10005D02*
X10006Y6987D01*
X9271Y6985D02*
X9272Y6986D01*
X12812Y4918D02*
X12827Y4933D01*
X8524Y4918D02*
X12812D01*
X12827Y4933D02*
Y6477D01*
X8509Y4933D02*
Y6731D01*
Y4933D02*
X8524Y4918D01*
X7386Y6750D02*
X7400Y6735D01*
X7386Y6750D02*
Y8148D01*
X8505Y6735D02*
X8509Y6731D01*
X7400Y6735D02*
X8505D01*
X7386Y8148D02*
X7874Y8636D01*
X7889Y9652D02*
X10414D01*
X7874Y9637D02*
X7889Y9652D01*
X7874Y8636D02*
Y9637D01*
X8130Y7242D02*
X8506D01*
X7754D02*
X8130D01*
Y8257D02*
X8509Y8636D01*
X8130Y7242D02*
Y8257D01*
X7751Y7245D02*
X7754Y7242D01*
X8506D02*
X8509Y7239D01*
X6604Y7245D02*
Y9383D01*
Y7245D02*
X6989D01*
X5967D02*
X6604D01*
X4376D02*
X5205D01*
X12826Y6732D02*
X12827Y6731D01*
X13589Y8128D02*
Y8870D01*
X13569Y8890D02*
X13589Y8870D01*
X12573Y8890D02*
X13569D01*
X6604Y5715D02*
X6606Y5717D01*
X9271Y8636D02*
X9383D01*
X9398Y8651D02*
Y9383D01*
X8255Y9398D02*
X9383D01*
X9398Y9383D01*
X6604D02*
X6619Y9398D01*
X7493D01*
X6604Y6477D02*
Y7245D01*
X5205D02*
X5332D01*
D21*
X3866Y7755D02*
D03*
Y6735D02*
D03*
X16764Y6600D02*
D03*
Y7620D02*
D03*
D22*
X4376Y6995D02*
D03*
X16254Y7360D02*
D03*
X10668Y9652D02*
D03*
X10414D02*
D03*
D23*
X4376Y7245D02*
D03*
X16254Y7110D02*
D03*
X10922Y9652D02*
D03*
D24*
X8255Y9398D02*
D03*
X7493D02*
D03*
X12573Y8890D02*
D03*
X11811D02*
D03*
X7751Y7245D02*
D03*
X6989D02*
D03*
X5967D02*
D03*
X5205D02*
D03*
X12218Y6987D02*
D03*
X11456D02*
D03*
X10768D02*
D03*
X10006D02*
D03*
D25*
X8509Y8636D02*
D03*
X9271D02*
D03*
X12827Y8128D02*
D03*
X13589D02*
D03*
X11176Y6096D02*
D03*
Y5334D02*
D03*
X6604Y6477D02*
D03*
Y5715D02*
D03*
D26*
X9271Y6731D02*
D03*
Y6985D02*
D03*
Y7239D02*
D03*
Y7493D02*
D03*
X8509Y6731D02*
D03*
Y6985D02*
D03*
Y7239D02*
D03*
X13589Y6477D02*
D03*
Y6731D02*
D03*
Y6985D02*
D03*
Y7239D02*
D03*
X12827Y6477D02*
D03*
Y6731D02*
D03*
Y6985D02*
D03*
D27*
X8509Y7493D02*
D03*
X12827Y7239D02*
D03*
M02*
