M48
;Layer_Color=9474304
;FILE_FORMAT=4:2
METRIC,LZ
;TYPE=PLATED
T1F00S00C0.70
T2F00S00C0.85
T3F00S00C0.90
T4F00S00C2.00
%
T01
X011176Y005334
Y006096
X006604Y006477
Y005715
X008509Y008636
X009271
X012827Y008128
X013589
T02
X012218Y006987
X011456
X010768
X010006
X007751Y007245
X006989
X005967
X005205
X007493Y009398
X008255
X011811Y00889
X012573
T03
X016254Y00711
Y00736
X013589Y007239
Y006985
Y006731
Y006477
X012827
Y006731
Y006985
Y007239
X009271
Y006985
Y006731
Y007493
X008509
Y007239
Y006985
Y006731
X004376Y006995
Y007245
X010414Y009652
X010668
X010922
T04
X016764Y0066
Y00762
X003866Y007755
Y006735
M30
